<?xml version="1.0" encoding="UTF-8" standalone="no"?>
<svg width="255px" height="56px" viewBox="0 0 255 56" version="1.1" xmlns="http://www.w3.org/2000/svg" xmlns:xlink="http://www.w3.org/1999/xlink">
    <!-- Generator: Sketch 39.1 (31720) - http://www.bohemiancoding.com/sketch -->
    <title>logo dps green</title>
    <desc>Created with Sketch.</desc>
    <defs></defs>
    <g id="static-pages" stroke="none" stroke-width="1" fill="none" fill-rule="evenodd">
        <g id="Inner-page-job" transform="translate(-144.000000, -78.000000)">
            <g id="logo-dps-green" transform="translate(144.000000, 78.000000)">
                <path d="M22.3572368,28.7115733 L22.3572368,28.8302933 L22.4765351,28.8302933 L22.4765351,31.5690667 L22.5950877,31.6885333 L22.4765351,31.6885333 L22.4765351,31.808 L22.5950877,32.4030933 L22.714386,32.4030933 L22.714386,32.64128 L22.8329386,32.64128 L22.5950877,33.1176533 L22.5950877,33.5940267 L22.714386,33.7127467 L22.714386,33.8322133 L22.5950877,33.8322133 L22.5950877,36.8091733 L22.714386,36.8091733 L22.714386,36.92864 L22.5950877,36.92864 L22.5950877,37.4050133 L22.8329386,37.4050133 L22.8329386,37.6424533 L23.1900877,37.6424533 L23.1900877,37.76192 L22.9522368,37.88064 L22.9522368,38.0001067 L22.714386,38.0001067 L22.714386,39.9056 L22.8329386,39.9056 L22.8329386,38.8341333 L25.6871491,38.9528533 L26.9949561,39.7861333 L28.7792105,41.0965333 L29.0170614,41.2152533 L29.2549123,41.45344 L29.1363596,41.5729067 L29.0170614,41.6916267 L26.8764035,41.5729067 L24.7357456,41.45344 L24.2600439,41.45344 L24.1407456,41.5729067 L24.1407456,41.6916267 L24.022193,41.5729067 L23.3086404,41.5729067 L23.3086404,41.6916267 L23.1900877,41.5729067 L23.0707895,41.5729067 L23.0707895,41.33472 L22.9522368,41.33472 L22.714386,41.5729067 L22.3572368,41.6916267 L22.0008333,41.6916267 L22.0008333,41.5729067 L21.6436842,41.33472 L21.6436842,41.0965333 L21.7629825,40.8583467 L21.6436842,40.5006933 L21.5251316,40.2625067 L21.4058333,40.1437867 L21.4058333,39.9056 L21.1679825,39.9056 L21.1679825,40.02432 L21.2872807,40.1437867 L21.0494298,40.2625067 L20.9301316,40.2625067 L20.8108333,40.02432 L20.8108333,39.7861333 L20.6922807,39.4292267 L20.4544298,39.0715733 L20.4544298,38.3570133 L20.5737281,38.2382933 L20.4544298,38.1188267 L20.5737281,38.0001067 L20.8108333,37.88064 L20.4544298,37.5237333 L20.4544298,36.92864 L20.5737281,36.8091733 L20.5737281,36.21408 L20.4544298,35.9758933 L20.3358772,35.9758933 L20.0980263,36.0946133 L19.8601754,35.9758933 L19.7408772,35.7377067 L19.6223246,35.0224 L19.6223246,33.8322133 L19.7408772,33.8322133 L19.7408772,33.7127467 L19.6223246,33.5940267 L19.6223246,33.2363733 L19.5030263,33.1176533 L19.6223246,33.1176533 L19.7408772,32.9981867 L19.8601754,32.9981867 L19.8601754,32.8794667 L19.7408772,32.5218133 L19.7408772,32.4030933 L19.5030263,32.2836267 L19.6223246,32.1649067 L19.6223246,31.92672 L19.7408772,31.92672 L19.8601754,31.6885333 L19.8601754,31.5690667 L19.6223246,31.5690667 L19.5030263,31.4503467 L19.5030263,29.4261333 L19.6223246,29.1879467 L19.7408772,29.1879467 L19.7408772,28.9490133 L19.6223246,28.9490133 L19.5030263,28.7115733 L19.7408772,28.5921067 L20.0980263,28.5921067 L20.0980263,28.4733867 L20.4544298,28.4733867 L20.4544298,28.5921067 L21.1679825,28.5921067 L21.2872807,28.4733867 L21.6436842,28.5921067 L22.119386,28.7115733 L22.3572368,28.5921067 L22.3572368,28.7115733 L22.3572368,28.7115733 L22.3572368,28.7115733 Z M31.6334211,40.2625067 L31.6334211,40.1437867 L31.3955702,40.2625067 L31.6334211,40.2625067 L31.6334211,40.2625067 L31.6334211,40.2625067 Z M19.5030263,2.63050667 L19.3844737,2.51178667 L19.3844737,2.39306667 L19.6223246,2.15488 L19.6223246,2.03541333 L19.5030263,2.03541333 L19.5030263,1.91669333 L19.3844737,1.79722667 L19.3844737,1.67776 L19.2659211,1.43957333 L19.1466228,1.43957333 L19.0273246,1.32085333 L18.7894737,1.32085333 L18.5516228,1.20213333 L19.0273246,0.963946667 L19.1466228,0.963946667 L19.0273246,0.84448 L19.1466228,0.84448 L19.1466228,0.963946667 L19.2659211,0.963946667 L19.2659211,1.08266667 L19.3844737,1.08266667 L19.3844737,0.963946667 L19.5030263,0.84448 L19.6223246,0.963946667 L19.6223246,0.606293333 L19.2659211,0.606293333 L19.2659211,0.72576 L19.1466228,0.606293333 L19.0273246,0.606293333 L19.0273246,0.487573333 L19.6223246,0.487573333 L19.6223246,0.12992 L19.5030263,0.12992 L19.6223246,0.0104533333 L19.7408772,0.0104533333 L19.7408772,0.487573333 L20.2165789,0.487573333 L20.2165789,0.606293333 L20.0980263,0.72576 L20.0980263,0.606293333 L19.7408772,0.606293333 L19.7408772,0.72576 L19.8601754,0.84448 L20.0980263,1.08266667 L20.2165789,1.20213333 L19.7408772,1.20213333 L19.7408772,1.32085333 L19.8601754,1.43957333 L19.9794737,1.43957333 L20.0980263,1.55904 L19.9794737,1.79722667 L19.9794737,1.91669333 L19.8601754,2.03541333 L19.7408772,2.03541333 L19.7408772,2.15488 L19.8601754,2.2736 L19.8601754,2.51178667 L19.7408772,2.63050667 L20.2165789,18.23136 L20.3358772,18.7077333 L20.4544298,18.7077333 L20.4544298,18.94592 L20.3358772,18.94592 L20.3358772,20.6132267 L20.4544298,20.7326933 L20.5737281,20.9701333 L20.6922807,21.4472533 L20.9301316,22.2805333 L20.9301316,22.3992533 L21.0494298,22.63744 L21.0494298,22.9950933 L20.9301316,22.9950933 L20.9301316,25.37696 L21.1679825,25.6151467 L21.4058333,25.7338667 L21.8815351,26.21024 L22.0008333,26.5678933 L22.119386,27.2824533 L22.2386842,27.52064 L22.3572368,27.7588267 L22.4765351,27.8775467 L22.714386,27.8775467 L22.714386,27.63936 L22.9522368,27.63936 L22.9522368,27.9970133 L22.8329386,28.35392 L22.714386,28.4733867 L22.5950877,28.4733867 L22.4765351,28.8302933 L22.5950877,28.8302933 L22.5950877,29.3066667 L22.4765351,29.4261333 L22.5950877,31.5690667 L22.714386,31.5690667 L22.714386,31.808 L22.5950877,31.808 L22.5950877,32.2836267 L22.714386,32.2836267 L22.714386,32.5218133 L22.9522368,32.5218133 L22.9522368,32.64128 L22.714386,33.1176533 L22.714386,33.5940267 L22.8329386,33.5940267 L22.8329386,33.8322133 L22.714386,33.8322133 L22.5950877,36.6897067 L22.8329386,36.8091733 L22.8329386,36.92864 L22.714386,36.92864 L22.714386,37.2855467 L22.8329386,37.2855467 L22.8329386,37.5237333 L23.1900877,37.5237333 L23.1900877,37.76192 L22.9522368,38.0001067 L22.8329386,38.0001067 L22.8329386,38.7146667 L29.6113158,38.8341333 L29.730614,38.7146667 L29.8491667,38.5959467 L29.8491667,36.45152 L29.730614,36.3328 L29.730614,35.3800533 L29.9684649,34.90368 L29.8491667,34.78496 L29.9684649,34.5467733 L29.9684649,34.3085867 L30.3248684,33.7127467 L30.6820175,33.35584 L31.0384211,33.1176533 L31.1577193,33.2363733 L31.2762719,33.47456 L31.6334211,33.47456 L31.8712719,33.2363733 L31.8712719,33.9509333 L32.2276754,33.9509333 L32.3462281,34.0704 L32.2276754,34.18912 L32.2276754,34.78496 L32.1091228,34.6654933 L31.9898246,34.5467733 L31.9898246,34.4273067 L31.8712719,34.3085867 L31.7519737,34.4273067 L31.7519737,34.6654933 L31.8712719,34.78496 L31.8712719,34.90368 L31.7519737,34.90368 L31.6334211,34.78496 L31.5141228,34.5467733 L31.3955702,34.90368 L31.3955702,35.0224 L31.2762719,35.1418667 L31.0384211,35.0224 L30.9198684,35.0224 L30.9198684,35.1418667 L31.6334211,35.2613333 L31.7519737,35.1418667 L32.3462281,35.1418667 L32.7033772,35.3800533 L33.0605263,35.1418667 L33.1790789,35.2613333 L33.2983772,35.3800533 L33.1790789,35.61824 L33.0605263,35.61824 L32.9412281,35.49952 L32.3462281,35.49952 L32.3462281,35.61824 L32.1091228,35.61824 L32.3462281,35.8564267 L32.5848246,35.8564267 L32.7033772,35.9758933 L32.1091228,35.9758933 L31.9898246,36.0946133 L32.1091228,36.21408 L32.3462281,36.21408 L32.3462281,36.45152 L31.8712719,36.45152 L31.7519737,36.5709867 L31.7519737,38.3570133 L31.8712719,38.47648 L31.8712719,39.5479467 L31.9898246,39.6674133 L32.1091228,39.7861333 L32.3462281,39.7861333 L32.4655263,39.6674133 L32.5848246,39.5479467 L32.7033772,39.6674133 L32.7033772,39.7861333 L32.8226754,39.9056 L32.9412281,39.6674133 L33.0605263,39.5479467 L33.1790789,39.6674133 L33.0605263,39.9056 L33.0605263,40.02432 L33.1790789,40.1437867 L33.4169298,40.2625067 L33.7733333,40.3819733 L34.2497807,40.5006933 L34.6061842,40.5006933 L34.4876316,40.73888 L34.3683333,40.73888 L34.1304825,40.62016 L34.0111842,40.5006933 L33.4169298,40.3819733 L33.2983772,40.5006933 L33.1790789,40.62016 L32.7033772,40.62016 L32.7033772,40.3819733 L32.4655263,40.3819733 L32.2276754,40.2625067 L32.1091228,40.1437867 L31.8712719,40.1437867 L31.1577193,39.4292267 L30.3248684,39.0715733 L30.2063158,39.0715733 L30.8005702,39.5479467 L31.6334211,40.1437867 L32.5848246,40.8583467 L33.0605263,41.33472 L33.1790789,41.45344 L33.5354825,41.45344 L33.6547807,41.33472 L33.7733333,41.33472 L33.7733333,41.6916267 L34.0111842,41.6916267 L34.1304825,41.5729067 L34.0111842,41.45344 L33.7733333,41.33472 L34.1304825,41.0965333 L34.3683333,41.0965333 L34.3683333,41.33472 L34.2497807,41.45344 L34.1304825,41.5729067 L34.2497807,41.6916267 L34.3683333,41.6916267 L34.4876316,41.8110933 L37.4603947,41.8110933 L37.4603947,41.6916267 L37.2225439,41.6916267 L37.1032456,41.5729067 L36.8653947,41.6916267 L36.5089912,41.5729067 L36.5089912,40.8583467 L36.389693,40.73888 L36.2711404,40.9770667 L36.2711404,41.33472 L36.0332895,41.5729067 L35.6761404,41.5729067 L35.6761404,41.45344 L35.9147368,41.45344 L36.0332895,41.33472 L35.9147368,41.2152533 L35.4382895,40.9770667 L34.6061842,40.73888 L34.8440351,40.73888 L35.9147368,40.9770667 L36.0332895,40.9770667 L36.0332895,40.73888 L36.1518421,40.62016 L36.1518421,40.5006933 L35.9147368,40.3819733 L35.7954386,40.2625067 L35.5575877,40.2625067 L34.3683333,39.5479467 L34.0111842,39.5479467 L34.0111842,39.4292267 L33.8926316,39.30976 L34.0111842,39.30976 L34.0111842,38.5959467 L33.8926316,38.3570133 L34.0111842,37.76192 L34.2497807,38.2382933 L34.7254825,38.2382933 L34.8440351,38.0001067 L35.9147368,38.0001067 L36.0332895,38.1188267 L36.2711404,38.3570133 L36.5089912,38.47648 L36.7468421,38.5959467 L36.8653947,38.5959467 L36.8653947,38.47648 L36.7468421,38.3570133 L36.6275439,38.2382933 L36.2711404,38.0001067 L36.5089912,37.88064 L36.8653947,37.6424533 L36.8653947,37.4050133 L37.3410965,37.2855467 L37.4603947,37.2855467 L37.4603947,37.04736 L37.5789474,36.8091733 L37.5789474,36.6897067 L37.4603947,36.5709867 L37.4603947,35.3800533 L37.5789474,35.2613333 L37.5789474,34.4273067 L38.0546491,33.9509333 L38.2925,33.9509333 L38.2925,32.9981867 L38.1739474,32.76 L38.0546491,32.64128 L38.0546491,32.2836267 L38.1739474,32.0461867 L38.4117982,31.808 L38.6496491,31.6885333 L38.7682018,31.6885333 L38.5303509,32.1649067 L38.5303509,32.5218133 L38.7682018,32.64128 L39.0060526,32.64128 L39.1253509,32.5218133 L39.1253509,32.76 L39.0060526,32.9981867 L38.7682018,32.9981867 L38.7682018,32.8794667 L38.5303509,32.8794667 L38.5303509,32.9981867 L38.6496491,32.9981867 L38.7682018,33.1176533 L38.7682018,33.9509333 L38.8875,33.9509333 L39.2439035,34.18912 L39.0060526,34.4273067 L39.1253509,34.5467733 L39.1253509,34.6654933 L39.2439035,34.78496 L39.6010526,34.90368 L39.6010526,35.1418667 L39.4817544,35.1418667 L39.4817544,35.2613333 L39.7196053,35.2613333 L39.7196053,35.49952 L39.6010526,35.49952 L39.6010526,36.92864 L39.7196053,37.2855467 L40.0767544,37.4050133 L40.6710088,37.5237333 L41.2660088,37.88064 L41.8602632,38.3570133 L42.3359649,38.8341333 L43.0495175,40.02432 L43.2873684,40.62016 L43.2873684,41.33472 L42.2174123,41.45344 L41.1467105,41.5729067 L40.0767544,41.8110933 L39.1253509,42.04928 L38.1739474,42.4061867 L37.2225439,42.76384 L36.2711404,43.2394667 L35.4382895,43.7165867 L14.7467544,43.7165867 L14.7467544,43.1207467 L14.865307,42.6443733 L14.9846053,41.0965333 L14.9846053,40.8583467 L15.2224561,40.62016 L15.6974123,40.2625067 L15.8167105,40.1437867 L15.8167105,40.02432 L15.9360088,39.9056 L15.9360088,37.76192 L15.8167105,37.76192 L15.8167105,37.6424533 L15.9360088,37.6424533 L15.9360088,37.1668267 L15.8167105,37.1668267 L15.9360088,37.04736 L15.9360088,36.92864 L15.8167105,36.92864 L15.8167105,36.45152 L15.9360088,36.21408 L16.2924123,36.21408 L16.5302632,36.0946133 L16.5302632,35.9758933 L16.6488158,35.7377067 L16.6488158,32.8794667 L17.1245175,32.1649067 L17.1245175,32.0461867 L17.0059649,32.0461867 L17.0059649,28.5921067 L16.8866667,28.4733867 L16.768114,28.4733867 L16.768114,28.35392 L17.0059649,28.2344533 L17.2438158,28.1157333 L17.3623684,27.9970133 L17.4816667,27.2824533 L17.4816667,26.80608 L17.6009649,26.4484267 L17.6009649,26.3297067 L17.8388158,26.09152 L17.9573684,25.8533333 L18.1952193,25.7338667 L18.4330702,25.6151467 L18.4330702,23.1138133 L18.3137719,23.1138133 L18.3137719,22.7569067 L18.4330702,22.7569067 L18.4330702,22.3992533 L18.5516228,21.9236267 L18.6709211,21.6846933 L18.6709211,21.0896 L19.0273246,20.7326933 L19.0273246,20.0173867 L19.1466228,19.0653867 L19.0273246,18.94592 L18.9087719,18.8272 L19.1466228,18.23136 L19.1466228,17.8744533 L19.5030263,2.63050667 L19.5030263,2.63050667 L19.5030263,2.63050667 Z M39.0060526,33.9509333 L39.1253509,33.9509333 L39.1253509,32.76 L39.0060526,32.76 L39.0060526,33.9509333 L39.0060526,33.9509333 Z M32.1091228,28.9490133 L32.1091228,29.06848 L31.8712719,29.06848 L31.8712719,28.9490133 L32.1091228,28.9490133 L32.1091228,29.06848 L31.8712719,29.06848 L31.8712719,28.9490133 L32.1091228,28.9490133 L32.1091228,28.9490133 L32.1091228,28.9490133 Z M22.714386,27.8775467 L22.5950877,27.9970133 L22.4765351,28.1157333 L22.4765351,28.2344533 L22.5950877,28.2344533 L22.5950877,28.35392 L22.714386,28.35392 L22.8329386,28.2344533 L22.8329386,28.1157333 L22.9522368,27.7588267 L22.8329386,27.7588267 L22.714386,27.8775467 L22.714386,27.8775467 L22.714386,27.8775467 Z M20.8108333,23.352 L20.6922807,23.352 L20.6922807,23.23328 L20.5737281,23.1138133 L20.4544298,22.9950933 L20.2165789,23.1138133 L20.0980263,23.352 L19.9794737,23.5901867 L19.9794737,24.5429333 L20.0980263,24.5429333 L20.0980263,25.6151467 L19.8601754,26.5678933 L19.8601754,27.4011733 L19.7408772,27.52064 L19.7408772,27.7588267 L19.5030263,27.7588267 L19.5030263,28.1157333 L19.7408772,28.2344533 L19.8601754,28.2344533 L19.8601754,28.35392 L20.0980263,28.35392 L20.0980263,28.2344533 L19.9794737,28.1157333 L20.5737281,28.1157333 L20.8108333,28.2344533 L21.1679825,28.1157333 L21.2872807,28.2344533 L22.2386842,28.2344533 L22.3572368,27.9970133 L22.2386842,27.8775467 L22.2386842,27.7588267 L22.119386,27.63936 L22.0008333,27.2824533 L21.7629825,26.3297067 L21.6436842,26.09152 L21.5251316,25.9720533 L21.4058333,25.7338667 L21.0494298,25.6151467 L20.8108333,25.49568 L20.8108333,23.352 L20.8108333,23.352 L20.8108333,23.352 Z M20.2165789,18.94592 L19.8601754,18.94592 L19.8601754,19.1841067 L19.7408772,19.3035733 L19.7408772,20.1368533 L19.8601754,20.1368533 L19.8601754,21.20832 L19.9794737,21.20832 L19.9794737,22.51872 L20.2165789,22.7569067 L20.3358772,22.8756267 L21.0494298,22.8756267 L21.0494298,22.63744 L20.9301316,22.63744 L20.8108333,22.51872 L20.8108333,22.2805333 L20.6922807,21.4472533 L20.5737281,20.9701333 L20.4544298,20.8514133 L20.2165789,20.7326933 L20.2165789,18.94592 L20.2165789,18.94592 L20.2165789,18.94592 Z M21.5251316,34.5467733 L21.6436842,34.78496 L21.8815351,34.78496 L21.8815351,34.4273067 L21.5251316,34.4273067 L21.4058333,34.3085867 L21.1679825,34.3085867 L21.1679825,34.4273067 L21.4058333,34.4273067 L21.5251316,34.5467733 L21.5251316,34.5467733 L21.5251316,34.5467733 Z M20.5737281,31.6885333 L21.4058333,31.6885333 L21.4058333,29.90176 L21.2872807,29.6635733 L20.8108333,29.6635733 L20.6922807,29.78304 L20.6922807,30.0212267 L20.5737281,31.6885333 L20.5737281,31.6885333 L20.5737281,31.6885333 Z M20.9301316,36.21408 L20.9301316,36.8091733 L21.5251316,36.8091733 L21.5251316,34.90368 L21.4058333,34.78496 L21.1679825,34.6654933 L20.9301316,34.78496 L20.8108333,34.90368 L20.8108333,35.0224 L20.6922807,35.1418667 L20.6922807,35.9758933 L20.8108333,35.9758933 L20.9301316,36.0946133 L20.9301316,36.21408 L20.9301316,36.21408 L20.9301316,36.21408 Z M20.0980263,33.5940267 L20.0980263,33.8322133 L19.8601754,33.8322133 L19.8601754,33.7127467 L20.0980263,33.5940267 L20.0980263,33.5940267 L20.0980263,33.5940267 Z M32.5848246,33.8322133 L32.7033772,33.8322133 L32.9412281,34.0704 L32.8226754,34.18912 L32.5848246,34.0704 L32.3462281,33.9509333 L32.4655263,33.8322133 L32.5848246,33.8322133 L32.5848246,33.8322133 L32.5848246,33.8322133 Z M20.0980263,19.4222933 L20.0980263,20.1368533 L19.8601754,20.1368533 L19.8601754,19.5410133 L19.9794737,19.4222933 L20.0980263,19.4222933 L20.0980263,19.4222933 L20.0980263,19.4222933 Z M20.6922807,23.7096533 L20.6922807,24.1860267 L20.5737281,24.3047467 L20.6922807,24.5429333 L20.5737281,24.78112 L20.2165789,24.78112 L20.2165789,23.94784 L20.0980263,23.94784 L20.2165789,23.5901867 L20.3358772,23.4714667 L20.4544298,23.352 L20.5737281,23.352 L20.5737281,23.4714667 L20.6922807,23.7096533 L20.6922807,23.7096533 L20.6922807,23.7096533 Z M20.6922807,25.1387733 L20.6922807,25.6151467 L20.4544298,25.6151467 L20.3358772,25.37696 L20.4544298,25.1387733 L20.6922807,25.1387733 L20.6922807,25.1387733 L20.6922807,25.1387733 Z M21.6436842,26.6866133 L21.5251316,26.80608 L21.1679825,26.5678933 L20.9301316,26.3297067 L20.9301316,26.21024 L21.0494298,26.21024 L21.2872807,26.3297067 L21.4058333,26.3297067 L21.5251316,26.5678933 L21.6436842,26.6866133 L21.6436842,26.6866133 L21.6436842,26.6866133 Z M20.8108333,26.3297067 L20.5737281,26.6866133 L20.5737281,27.0442667 L20.4544298,27.1629867 L20.2165789,26.6866133 L20.2165789,26.5678933 L20.3358772,26.5678933 L20.5737281,26.3297067 L20.8108333,26.3297067 L20.8108333,26.3297067 L20.8108333,26.3297067 Z M21.4058333,27.0442667 L21.4058333,27.4011733 L21.2872807,27.52064 L21.0494298,27.63936 L20.9301316,27.52064 L20.6922807,27.2824533 L20.5737281,27.0442667 L20.6922807,26.9248 L20.6922807,26.80608 L20.8108333,26.6866133 L21.1679825,26.6866133 L21.2872807,26.80608 L21.4058333,26.9248 L21.4058333,27.0442667 L21.4058333,27.0442667 L21.4058333,27.0442667 Z M20.5737281,27.7588267 L20.3358772,27.7588267 L20.4544298,27.52064 L20.5737281,27.63936 L20.5737281,27.7588267 L20.5737281,27.7588267 L20.5737281,27.7588267 Z M22.3572368,29.1879467 L22.3572368,29.5448533 L22.2386842,29.5448533 L22.0008333,29.3066667 L22.2386842,28.8302933 L22.2386842,29.06848 L22.3572368,29.1879467 L22.3572368,29.1879467 L22.3572368,29.1879467 Z M20.2165789,31.5690667 L20.2165789,31.6885333 L20.0980263,31.6885333 L19.9794737,31.5690667 L20.2165789,31.5690667 L20.2165789,31.5690667 L20.2165789,31.5690667 Z M22.3572368,31.6885333 L22.3572368,31.808 L22.119386,32.0461867 L22.2386842,32.0461867 L22.2386842,32.1649067 L22.0008333,32.2836267 L22.0008333,31.92672 L21.7629825,31.6885333 L22.119386,31.5690667 L22.3572368,31.6885333 L22.3572368,31.6885333 L22.3572368,31.6885333 Z M21.6436842,32.64128 L21.4058333,32.64128 L20.6922807,32.5218133 L20.9301316,32.4030933 L21.2872807,32.4030933 L21.6436842,32.64128 L21.6436842,32.64128 L21.6436842,32.64128 Z M22.3572368,32.5218133 L22.2386842,32.76 L22.2386842,33.1176533 L22.0008333,33.1176533 L21.8815351,32.9981867 L21.0494298,32.9981867 L20.9301316,32.8794667 L20.6922807,32.8794667 L20.8108333,32.76 L21.8815351,32.76 L22.0008333,32.64128 L22.0008333,32.5218133 L22.119386,32.4030933 L22.3572368,32.5218133 L22.3572368,32.5218133 L22.3572368,32.5218133 Z M20.3358772,32.76 L20.3358772,32.8794667 L19.9794737,32.8794667 L20.0980263,32.76 L20.3358772,32.76 L20.3358772,32.76 L20.3358772,32.76 Z M33.4169298,33.9509333 L33.5354825,34.0704 L33.4169298,34.3085867 L33.2983772,34.18912 L33.1790789,34.18912 L33.1790789,34.0704 L33.2983772,33.9509333 L33.4169298,33.9509333 L33.4169298,33.9509333 L33.4169298,33.9509333 Z M32.8226754,34.5467733 L32.7033772,34.78496 L32.5848246,34.90368 L32.4655263,34.90368 L32.3462281,34.78496 L32.3462281,34.6654933 L32.4655263,34.4273067 L32.5848246,34.3085867 L32.7033772,34.3085867 L32.7033772,34.4273067 L32.8226754,34.5467733 L32.8226754,34.5467733 L32.8226754,34.5467733 Z M33.7733333,34.5467733 L33.6547807,34.78496 L33.5354825,34.78496 L33.5354825,34.4273067 L33.6547807,34.3085867 L33.7733333,34.5467733 L33.7733333,34.5467733 L33.7733333,34.5467733 Z M33.2983772,35.8564267 L33.1790789,35.9758933 L33.2983772,36.0946133 L33.2983772,36.21408 L33.1790789,36.21408 L33.0605263,36.3328 L32.7033772,36.3328 L32.4655263,36.45152 L32.4655263,36.0946133 L32.8226754,36.0946133 L32.9412281,36.21408 L33.0605263,36.0946133 L33.0605263,35.9758933 L32.9412281,35.7377067 L33.1790789,35.7377067 L33.2983772,35.8564267 L33.2983772,35.8564267 L33.2983772,35.8564267 Z M34.0111842,36.45152 L34.0111842,36.8091733 L33.8926316,36.8091733 L33.8926316,36.45152 L33.7733333,36.3328 L33.6547807,36.0946133 L33.8926316,36.0946133 L34.0111842,36.45152 L34.0111842,36.45152 L34.0111842,36.45152 Z M32.3462281,36.6897067 L32.5848246,36.5709867 L32.7033772,36.5709867 L32.8226754,36.6897067 L32.8226754,38.0001067 L32.9412281,38.1188267 L32.8226754,38.2382933 L32.4655263,38.3570133 L31.8712719,38.3570133 L31.8712719,38.1188267 L32.1091228,38.1188267 L32.2276754,38.0001067 L32.3462281,38.0001067 L32.2276754,37.88064 L32.2276754,36.5709867 L32.3462281,36.6897067 L32.3462281,36.6897067 L32.3462281,36.6897067 Z M33.7733333,36.8091733 L33.7733333,38.2382933 L33.5354825,38.2382933 L33.5354825,37.5237333 L33.6547807,37.4050133 L33.5354825,37.2855467 L33.5354825,36.8091733 L33.7733333,36.6897067 L33.7733333,36.8091733 L33.7733333,36.8091733 L33.7733333,36.8091733 Z M21.2872807,39.19104 L21.5251316,39.30976 L21.5251316,39.4292267 L21.6436842,39.6674133 L21.6436842,39.9056 L21.2872807,39.6674133 L21.1679825,39.5479467 L21.0494298,39.4292267 L21.1679825,39.30976 L21.2872807,39.19104 L21.2872807,39.19104 L21.2872807,39.19104 Z M7.25482456,42.5256533 L7.49192982,43.0020267 L7.73052632,43.1207467 L7.96837719,43.2394667 L7.96837719,43.4784 L7.84907895,43.4784 L7.84907895,44.0734933 L34.8440351,44.0734933 L34.4876316,44.31168 L7.84907895,44.31168 L7.84907895,45.02624 L33.6547807,44.90752 L33.0605263,45.1457067 L7.61122807,45.1457067 L5.94627193,50.02816 L5.70842105,50.1476267 L5.58986842,49.9086933 L6.89767544,45.9789867 L6.18412281,45.2644267 L6.18412281,43.4784 L5.94627193,43.4784 L6.18412281,43.2394667 L6.42197368,43.1207467 L6.54127193,43.1207467 L6.54127193,43.0020267 L6.42197368,43.0020267 L6.42197368,42.88256 L6.54127193,42.88256 L6.65982456,42.76384 L6.65982456,42.5256533 L7.25482456,42.5256533 L7.25482456,42.5256533 L7.25482456,42.5256533 Z M38.6496491,35.2613333 L38.7682018,35.2613333 L38.7682018,35.3800533 L38.8875,35.2613333 L38.8875,35.1418667 L38.6496491,35.1418667 L38.6496491,35.2613333 L38.6496491,35.2613333 L38.6496491,35.2613333 Z M38.8875,35.49952 L39.0060526,35.61824 L39.0060526,35.7377067 L39.2439035,35.49952 L39.2439035,35.3800533 L39.0060526,35.3800533 L38.8875,35.49952 L38.8875,35.49952 L38.8875,35.49952 Z M38.8875,35.9758933 L39.0060526,36.0946133 L38.8875,36.3328 L39.0060526,36.45152 L39.0060526,36.92864 L39.1253509,36.8091733 L39.1253509,35.9758933 L39.0060526,35.8564267 L38.8875,35.9758933 L38.8875,35.9758933 L38.8875,35.9758933 Z M39.2439035,37.1668267 L39.2439035,37.2855467 L39.4817544,37.2855467 L39.4817544,37.04736 L39.2439035,37.04736 L39.2439035,37.1668267 L39.2439035,37.1668267 L39.2439035,37.1668267 Z M32.5848246,40.2625067 L32.7033772,40.2625067 L32.5848246,40.1437867 L32.5848246,40.2625067 L32.5848246,40.2625067 L32.5848246,40.2625067 Z M21.5251316,29.5448533 L21.6436842,29.78304 L21.7629825,29.78304 L21.7629825,29.5448533 L21.8815351,29.5448533 L21.8815351,29.4261333 L21.5251316,29.4261333 L21.4058333,29.3066667 L21.0494298,29.3066667 L21.0494298,29.4261333 L21.2872807,29.4261333 L21.5251316,29.5448533 L21.5251316,29.5448533 L21.5251316,29.5448533 Z M22.9522368,42.2874667 L22.9522368,42.4061867 L23.0707895,42.4061867 L23.1900877,42.2874667 L23.9036404,42.2874667 L24.022193,42.4061867 L24.2600439,42.4061867 L24.3793421,42.5256533 L24.7357456,42.4061867 L24.4978947,42.168 L24.4978947,41.9298133 L24.3793421,41.9298133 L24.1407456,41.8110933 L23.9036404,41.9298133 L23.6657895,41.8110933 L23.427193,41.9298133 L23.1900877,41.9298133 L23.0707895,42.04928 L22.9522368,42.2874667 L22.9522368,42.2874667 L22.9522368,42.2874667 Z M23.6657895,42.6443733 L23.9036404,42.88256 L24.1407456,42.76384 L24.2600439,42.88256 L24.3793421,42.76384 L24.2600439,42.6443733 L23.6657895,42.6443733 L23.6657895,42.6443733 L23.6657895,42.6443733 Z M27.1142544,42.76384 L27.232807,42.88256 L27.3521053,43.0020267 L27.4706579,43.1207467 L27.4706579,43.2394667 L28.4220614,43.2394667 L28.8977632,43.0020267 L29.1363596,43.1207467 L29.2549123,43.0020267 L29.1363596,42.88256 L27.4706579,42.88256 L27.827807,42.76384 L27.9471053,42.88256 L28.6599123,42.88256 L28.7792105,42.76384 L29.0170614,42.88256 L29.1363596,42.88256 L29.2549123,42.76384 L29.0170614,42.6443733 L27.232807,42.6443733 L27.1142544,42.76384 L27.1142544,42.76384 L27.1142544,42.76384 Z M30.0870175,42.6443733 L29.4927632,42.6443733 L29.3742105,42.76384 L29.4927632,42.88256 L30.0870175,42.88256 L29.730614,42.88256 L29.6113158,43.0020267 L29.730614,43.1207467 L30.6820175,43.1207467 L30.9198684,43.0020267 L31.1577193,43.0020267 L31.3955702,43.1207467 L31.5141228,43.0020267 L31.5141228,42.88256 L31.2762719,42.88256 L31.5141228,42.88256 L31.5141228,42.76384 L31.3955702,42.6443733 L30.0870175,42.6443733 L30.0870175,42.6443733 L30.0870175,42.6443733 Z M24.617193,42.76384 L24.7357456,42.76384 L24.617193,42.6443733 L24.617193,42.76384 L24.617193,42.76384 L24.617193,42.76384 Z M31.6334211,42.76384 L31.6334211,42.88256 L31.8712719,42.88256 L31.8712719,43.0020267 L31.9898246,43.1207467 L32.9412281,43.1207467 L33.1790789,43.0020267 L33.4169298,43.0020267 L33.5354825,43.1207467 L33.6547807,43.1207467 L33.7733333,43.0020267 L33.5354825,43.0020267 L33.5354825,42.88256 L33.6547807,42.88256 L33.7733333,42.76384 L32.7033772,42.76384 L32.5848246,42.6443733 L32.2276754,42.76384 L31.7519737,42.6443733 L31.7519737,42.76384 L31.6334211,42.76384 L31.6334211,42.76384 L31.6334211,42.76384 Z M33.8926316,42.88256 L34.0111842,43.0020267 L34.1304825,42.88256 L34.1304825,43.0020267 L34.2497807,43.1207467 L35.9147368,43.1207467 L36.0332895,43.0020267 L35.9147368,42.88256 L36.0332895,42.88256 L35.9147368,42.76384 L33.8926316,42.76384 L33.8926316,42.88256 L33.8926316,42.88256 L33.8926316,42.88256 Z M22.8329386,43.0020267 L22.8329386,43.2394667 L22.9522368,43.2394667 L23.0707895,43.1207467 L23.1900877,43.1207467 L23.1900877,43.0020267 L23.0707895,42.88256 L22.8329386,42.88256 L22.8329386,43.0020267 L22.8329386,43.0020267 L22.8329386,43.0020267 Z M23.6657895,43.0020267 L23.6657895,43.1207467 L23.7843421,43.1207467 L23.7843421,42.88256 L23.6657895,43.0020267 L23.6657895,43.0020267 L23.6657895,43.0020267 Z M24.1407456,43.0020267 L24.2600439,43.2394667 L24.3793421,43.2394667 L24.4978947,43.1207467 L24.617193,43.0020267 L24.4978947,42.88256 L24.2600439,42.88256 L24.1407456,43.0020267 L24.1407456,43.0020267 L24.1407456,43.0020267 Z M24.8542982,43.1207467 L24.8542982,43.2394667 L26.9949561,43.2394667 L26.9949561,42.88256 L24.8542982,42.88256 L24.8542982,43.1207467 L24.8542982,43.1207467 L24.8542982,43.1207467 Z M36.8653947,39.0715733 L36.984693,39.5479467 L36.8653947,39.7861333 L36.984693,40.1437867 L37.1032456,40.2625067 L37.2225439,40.2625067 L37.2225439,40.1437867 L37.1032456,39.6674133 L37.2225439,39.4292267 L37.1032456,39.0715733 L36.984693,38.9528533 L36.8653947,38.9528533 L36.8653947,39.0715733 L36.8653947,39.0715733 L36.8653947,39.0715733 Z M37.5789474,40.2625067 L37.9360965,40.8583467 L37.9360965,40.9770667 L38.0546491,41.2152533 L38.0546491,41.45344 L38.1739474,41.5729067 L38.2925,41.6916267 L38.2925,41.5729067 L38.4117982,41.5729067 L38.5303509,41.33472 L38.1739474,41.0965333 L38.0546491,40.9770667 L38.0546491,40.62016 L37.8167982,40.5006933 L37.8167982,40.2625067 L37.6982456,40.1437867 L37.5789474,40.2625067 L37.5789474,40.2625067 L37.5789474,40.2625067 Z M20.4544298,29.5448533 L20.4544298,29.78304 L20.2165789,29.78304 L20.2165789,29.5448533 L20.0980263,29.5448533 L20.0980263,29.4261333 L20.4544298,29.4261333 L20.5737281,29.3066667 L20.9301316,29.3066667 L20.9301316,29.4261333 L20.6922807,29.4261333 L20.4544298,29.5448533 L20.4544298,29.5448533 L20.4544298,29.5448533 Z M21.6436842,39.0715733 L21.7629825,39.30976 L22.0008333,39.30976 L22.0008333,38.9528533 L22.119386,38.9528533 L21.6436842,38.9528533 L21.6436842,38.8341333 L21.4058333,38.7146667 L21.1679825,38.7146667 L21.1679825,38.8341333 L21.2872807,38.9528533 L21.4058333,38.9528533 L21.6436842,39.0715733 L21.6436842,39.0715733 L21.6436842,39.0715733 Z M20.4544298,34.5467733 L20.4544298,34.78496 L20.2165789,34.78496 L20.2165789,34.5467733 L20.0980263,34.5467733 L20.0980263,34.4273067 L20.5737281,34.4273067 L20.6922807,34.3085867 L20.9301316,34.3085867 L20.9301316,34.4273067 L20.6922807,34.5467733 L20.4544298,34.5467733 L20.4544298,34.5467733 L20.4544298,34.5467733 Z M22.5950877,37.76192 L22.4765351,37.6424533 L22.2386842,37.76192 L22.3572368,37.88064 L22.3572368,38.0001067 L22.119386,38.0001067 L21.8815351,37.76192 L21.1679825,37.6424533 L21.1679825,37.5237333 L22.4765351,37.5237333 L22.5950877,37.6424533 L22.5950877,37.76192 L22.5950877,37.76192 L22.5950877,37.76192 Z M22.3572368,38.47648 L22.3572368,38.7146667 L22.119386,38.7146667 L22.119386,38.47648 L22.2386842,38.3570133 L22.3572368,38.47648 L22.3572368,38.47648 L22.3572368,38.47648 Z M31.8712719,29.90176 L31.8712719,30.0212267 L31.9898246,30.0212267 L31.7519737,30.1406933 L31.6334211,30.37888 L31.6334211,30.4976 L31.7519737,30.7357867 L31.9898246,30.8545067 L32.2276754,30.7357867 L32.3462281,30.6170667 L32.4655263,30.4976 L32.5848246,30.7357867 L32.4655263,30.8545067 L32.4655263,32.76 L32.8226754,32.8794667 L33.1790789,33.1176533 L33.5354825,33.47456 L33.7733333,33.8322133 L33.7733333,33.9509333 L33.8926316,34.18912 L34.0111842,34.6654933 L34.1304825,35.1418667 L34.1304825,35.61824 L34.0111842,35.61824 L34.0111842,38.1188267 L34.0111842,35.0224 L33.8926316,34.5467733 L33.7733333,34.18912 L33.6547807,33.9509333 L33.1790789,33.2363733 L32.8226754,32.9981867 L32.4655263,32.76 L32.3462281,32.5218133 L32.3462281,31.0926933 L31.9898246,30.9739733 L31.7519737,31.21216 L31.9898246,31.33088 L32.2276754,31.6885333 L31.8712719,31.6885333 L31.9898246,31.808 L32.1091228,31.808 L32.1091228,31.92672 L32.2276754,32.2836267 L32.1091228,32.4030933 L31.8712719,32.4030933 L31.8712719,32.64128 L31.9898246,32.76 L31.8712719,32.9981867 L31.7519737,32.8794667 L31.5141228,32.8794667 L31.5141228,32.9981867 L31.2762719,32.9981867 L31.2762719,31.4503467 L31.3955702,31.21216 L31.3955702,30.9739733 L31.2762719,30.9739733 L31.2762719,30.8545067 L31.1577193,30.7357867 L31.2762719,30.37888 L31.3955702,30.2594133 L31.6334211,30.1406933 L31.6334211,29.6635733 L31.7519737,29.5448533 L31.7519737,29.4261333 L31.9898246,29.3066667 L31.9898246,28.8302933 L31.9898246,29.4261333 L31.8712719,29.4261333 L31.7519737,29.6635733 L32.1091228,29.6635733 L32.1091228,29.78304 L31.9898246,29.78304 L31.8712719,29.90176 L31.8712719,29.90176 L31.8712719,29.90176 Z M38.6496491,31.6885333 L38.6496491,31.21216 L38.4117982,31.21216 L38.4117982,31.0926933 L38.6496491,31.0926933 L38.6496491,30.9739733 L38.7682018,30.9739733 L38.7682018,31.0926933 L39.0060526,31.0926933 L39.0060526,31.21216 L38.7682018,31.21216 L38.7682018,31.6885333 L38.6496491,31.6885333 L38.6496491,31.6885333 L38.6496491,31.6885333 Z M1.19,50.9809067 L23.309386,50.9809067 L23.309386,50.74272 L1.19,50.74272 L1.19,50.9809067 L1.19,50.9809067 Z M2.85421053,51.6954667 L21.6436842,51.6954667 L21.6436842,51.45728 L2.85421053,51.45728 L2.85421053,51.6954667 L2.85421053,51.6954667 Z M4.51916667,52.4100267 L20.0972807,52.4100267 L20.0972807,52.17184 L4.51916667,52.17184 L4.51916667,52.4100267 L4.51916667,52.4100267 Z M6.06557018,53.1245867 L18.4330702,53.1245867 L18.4330702,52.8864 L6.06557018,52.8864 L6.06557018,53.1245867 L6.06557018,53.1245867 Z M7.73052632,53.8384 L16.7688596,53.8384 L16.7688596,53.4814933 L7.73052632,53.4814933 L7.73052632,53.8384 L7.73052632,53.8384 Z M0.357149123,50.9809067 L1.19,51.6954667 L2.14065789,52.29056 L3.21135965,53.00512 L3.80561404,53.3620267 L4.51916667,53.60096 L5.94627193,54.1960533 L7.73052632,54.6724267 L8.56263158,54.9106133 L9.63333333,55.0293333 L10.7032895,55.1488 L13.0817982,55.1488 L14.3896053,55.0293333 L15.5788596,54.9106133 L16.768114,54.6724267 L18.9087719,54.1960533 L19.9794737,53.8391467 L20.9301316,53.4814933 L21.8815351,53.12384 L22.714386,52.6482133 L24.4978947,51.6954667 L26.2821491,50.6232533 L27.9471053,49.5517867 L31.9898246,46.8130133 L34.0111842,45.5026133 L35.9147368,44.31168 L36.984693,43.8353067 L37.9360965,43.2394667 L39.0060526,42.88256 L39.6010526,42.6443733 L40.0767544,42.5256533 L41.2660088,42.168 L42.4552632,41.9298133 L43.7630702,41.8110933 L45.9037281,41.8110933 L46.8551316,41.9298133 L47.6872368,42.04928 L48.4007895,42.168 L49.8278947,42.6443733 L51.0171491,43.0020267 L51.8492544,43.4784 L52.5635526,43.9547733 L53.0385088,44.31168 L53.157807,44.4304 L53.0385088,44.5498667 L52.9199561,44.6693333 L52.8014035,44.6693333 L52.3249561,44.19296 L51.4928509,43.7165867 L50.66,43.3589333 L49.7093421,43.0020267 L48.7579386,42.6443733 L47.8065351,42.5256533 L46.8551316,42.2874667 L45.9037281,42.168 L44.9523246,42.168 L43.7630702,42.2874667 L42.4552632,42.4061867 L41.3845614,42.6443733 L40.195307,42.88256 L39.1253509,43.2394667 L38.0546491,43.7165867 L36.984693,44.19296 L36.0332895,44.6693333 L35.081886,45.2644267 L34.1304825,45.85952 L32.2276754,47.16992 L30.2063158,48.4795733 L28.1842105,49.9086933 L26.52,50.9809067 L24.7357456,52.0523733 L22.9522368,53.00512 L21.0494298,53.8391467 L20.0980263,54.1960533 L19.0273246,54.55296 L17.9573684,54.7911467 L16.8866667,55.0293333 L16.2924123,55.1488 L15.6974123,55.2682667 L14.5089035,55.3869867 L13.2003509,55.5064533 L10.5839912,55.5064533 L9.51403509,55.3869867 L8.56263158,55.2682667 L7.61122807,55.0293333 L5.8277193,54.55296 L4.28131579,53.9578667 L2.97350877,53.3620267 L1.90280702,52.6482133 L0.952149123,51.9336533 L0.119298246,51.3378133 L0,51.3378133 L0,51.0996267 L0.237850877,50.9809067 L0.357149123,50.9809067 L0.357149123,50.9809067 L0.357149123,50.9809067 Z M26.1628509,51.9336533 L28.6599123,50.3850667 L32.5848246,47.6462933 L34.6061842,46.3358933 L36.5089912,45.1457067 L37.5789474,44.6693333 L38.5303509,44.19296 L39.6010526,43.7165867 L40.195307,43.59712 L40.790307,43.3589333 L41.8602632,43.1207467 L43.0495175,42.88256 L44.3573246,42.76384 L45.6658772,42.6443733 L45.7851754,42.76384 L45.7851754,43.0020267 L45.6658772,43.0020267 L44.3573246,43.1207467 L43.1688158,43.2394667 L41.9795614,43.4784 L40.790307,43.7165867 L39.7196053,44.0734933 L38.6496491,44.5498667 L37.6982456,45.02624 L36.6275439,45.5026133 L35.6761404,46.0984533 L34.7254825,46.6935467 L32.8226754,48.0032 L30.8005702,49.43232 L28.7792105,50.74272 L26.4007018,52.29056 L26.2821491,52.29056 L26.1628509,52.17184 L26.1628509,51.9336533 L26.1628509,51.9336533 L26.1628509,51.9336533 Z M19.6223246,2.63050667 L19.7408772,18.5890133 L19.9794737,18.7077333 L20.2165789,18.7077333 L20.0980263,18.11264 L19.7408772,2.63050667 L19.6223246,2.63050667 L19.6223246,2.63050667 L19.6223246,2.63050667 Z M31.5141228,40.2625067 L29.4927632,38.9528533 L26.1628509,38.9528533 L28.7792105,40.9770667 L29.2549123,41.2152533 L29.3742105,41.45344 L29.4927632,41.6916267 L33.1790789,41.6916267 L31.5141228,40.2625067 L31.5141228,40.2625067 L31.5141228,40.2625067 Z" id="Fill-1" fill="#303030"></path>
                <path d="M60.3067544,44.4132267 L61.4594737,44.4132267 C62.2341667,42.6077867 62.8530263,41.1637333 63.3108333,40.08032 C63.7701316,38.9931733 64.2995175,37.7051733 64.9094298,36.21184 C65.5185965,34.7229867 66.0927193,33.2744533 66.6362719,31.8752 C67.1746053,30.4759467 67.6465789,29.20512 68.0514474,28.0686933 C68.2072807,28.0686933 68.4026316,28.0866133 68.6389912,28.1224533 C68.8746053,28.1627733 69.052807,28.1799467 69.1728509,28.1799467 C69.3107895,28.1799467 69.5024123,28.1627733 69.7425,28.1224533 C69.9788596,28.0866133 70.1742105,28.0686933 70.3210965,28.0686933 C72.0837281,32.9048533 74.1938158,38.35104 76.6498684,44.4132267 L77.9367982,44.4132267 C77.8294298,45.2554667 77.7720175,45.7281067 77.7720175,45.82592 C77.7720175,46.27168 77.8294298,46.7525333 77.9367982,47.2699733 L77.5311842,47.2699733 C77.2113158,46.8734933 76.6685088,46.61888 75.9027632,46.5076267 C75.1370175,46.3918933 74.224386,46.3381333 73.1566667,46.3381333 L65.2740351,46.3381333 C64.0810526,46.3381333 63.1020614,46.3918933 62.3452632,46.4986667 C61.5839912,46.60096 61.0411842,46.8600533 60.7116228,47.2699733 L60.3067544,47.2699733 C60.4007018,46.8690133 60.444693,46.3874133 60.444693,45.82592 C60.444693,45.4600533 60.4007018,44.98816 60.3067544,44.4132267 L60.3067544,44.4132267 L60.3067544,44.4132267 Z M67.7576754,44.51552 C68.4742105,44.51552 69.2712719,44.50208 70.1518421,44.47968 C71.0331579,44.4528 71.6967544,44.4304 72.141886,44.4132267 C71.6251754,42.8392533 71.0510526,41.1995733 70.4105702,39.4874667 C69.7693421,37.7716267 68.9812281,35.6637867 68.0514474,33.15424 C66.0442544,38.0971733 64.6022368,41.84992 63.7298684,44.4132267 C64.1392105,44.4304 64.7491228,44.4528 65.5588596,44.47968 C66.3693421,44.50208 67.1037719,44.51552 67.7576754,44.51552 L67.7576754,44.51552 L67.7576754,44.51552 Z M89.5221491,36.8181333 L89.5221491,44.1451733 C89.5221491,44.6088533 89.6198246,44.92992 89.8114474,45.1083733 C90.0075439,45.29056 90.3721491,45.38016 90.9104825,45.38016 L90.9104825,45.9954133 C89.8688596,46.4725333 89.0591228,46.71296 88.485,46.71296 C87.8795614,46.71296 87.3457018,46.5389867 86.8826754,46.19104 C86.4196491,45.84832 86.081886,45.36672 85.8634211,44.7559467 C85.5256579,45.36224 85.0402632,45.83936 84.4169298,46.19104 C83.7898684,46.5389867 83.1352193,46.71296 82.4455263,46.71296 C81.7066228,46.71296 81.0519737,46.5793067 80.4778509,46.3112533 C79.9037281,46.0446933 79.4585965,45.6429867 79.1335088,45.1128533 C78.8136404,44.5819733 78.6533333,43.9405867 78.6533333,43.1872 C78.6533333,42.36288 78.8225877,41.6983467 79.1603509,41.1950933 C79.494386,40.6955733 80.0066228,40.2856533 80.6918421,39.9735467 C81.3770614,39.66144 82.3165351,39.35904 83.5177193,39.0648533 C84.4214035,38.8416 85.0715789,38.6093867 85.4675,38.36448 C85.7299561,38.1195733 85.8634211,37.7761067 85.8634211,37.3258667 C85.8634211,36.69344 85.6009649,36.14464 85.075307,35.6727467 C84.5503947,35.2045867 83.9673246,34.96864 83.3260965,34.96864 C82.8056579,34.96864 82.3075877,35.0664533 81.8266667,35.2628267 C81.3502193,35.4584533 80.9498246,35.6906667 80.6336842,35.9579733 C80.3130702,36.22528 80.1266667,36.4485333 80.0685088,36.62624 L79.8865789,36.62624 L79.5391228,35.0485333 C80.1445614,34.46912 80.8924123,34.02784 81.7819298,33.7202133 C82.672193,33.4125867 83.5714035,33.2610133 84.4750877,33.2610133 C85.2982456,33.2610133 86.095307,33.3774933 86.8647807,33.61344 C87.635,33.8493867 88.2710088,34.2331733 88.7742982,34.7677867 C89.273114,35.2986667 89.5221491,35.9848533 89.5221491,36.8181333 L89.5221491,36.8181333 L89.5221491,36.8181333 Z M85.8634211,42.0866133 L85.8634211,39.4874667 C85.7702193,39.5277867 85.5077632,39.6173867 85.085,39.75552 C84.6614912,39.8891733 84.3058333,40.0228267 84.0165351,40.14752 C83.7272368,40.2677333 83.4647807,40.4237867 83.2239474,40.6112 C82.6542982,41.05248 82.3694737,41.80064 82.3694737,42.8661333 C82.3694737,43.4410667 82.4813158,43.9361067 82.7079825,44.3505067 C82.9346491,44.7649067 83.3,44.97472 83.8114912,44.97472 C85.1021491,44.97472 85.7836404,44.01152 85.8634211,42.0866133 L85.8634211,42.0866133 L85.8634211,42.0866133 Z M99.9413596,46.4411733 L96.919386,37.1922133 C96.6435088,37.95008 96.3542105,38.7393067 96.0470175,39.5681067 C95.7442982,40.3924267 95.4639474,41.1726933 95.2059649,41.8992 C94.9435088,42.6301867 94.680307,43.4014933 94.4089035,44.2078933 C94.1375,45.01952 93.8974123,45.7632 93.6878947,46.4411733 C93.1942982,46.4053333 92.8289474,46.3874133 92.597807,46.3874133 C92.3666667,46.3874133 92.0192105,46.4053333 91.5561842,46.4411733 C91.5561842,46.3291733 91.6188158,46.1245867 91.7388596,45.82592 C92.1839912,44.912 92.6380702,43.8689067 93.1003509,42.70112 C93.509693,41.6983467 93.8660965,40.8247467 94.1688158,40.07584 C94.4760088,39.32768 94.7608333,38.6056533 95.0322368,37.90976 C95.3036404,37.2190933 95.5705702,36.5194667 95.8285526,35.81088 C96.0872807,35.1022933 96.3452632,34.3444267 96.6032456,33.5290667 C96.6211404,33.5290667 96.7546053,33.54176 97.008114,33.56416 C97.2623684,33.58656 97.4487719,33.60448 97.5643421,33.61344 C97.6806579,33.62688 97.8141228,33.63136 97.9654825,33.63136 C98.0363158,33.63136 98.1347368,33.62688 98.250307,33.6224 C98.3614035,33.61344 98.4859211,33.60448 98.619386,33.59104 C98.7528509,33.5776 98.864693,33.56864 98.9623684,33.5552 C99.0555702,33.5469867 99.1800877,33.53728 99.3269737,33.5290667 C100.346228,36.4791467 101.1925,38.87296 101.855351,40.7045333 C102.513728,42.5413333 103.239211,44.4528 104.027325,46.4411733 C103.787237,46.4322133 103.444254,46.4142933 102.994649,46.3829333 C102.545044,46.3515733 102.202061,46.3381333 101.966447,46.3381333 C101.735307,46.3381333 101.392325,46.3515733 100.938246,46.3829333 C100.484167,46.4142933 100.150877,46.4322133 99.9413596,46.4411733 L99.9413596,46.4411733 L99.9413596,46.4411733 Z M109.372632,40.0228267 L109.372632,45.2196267 L109.795395,45.2196267 C110.44557,45.2196267 111.02864,44.99712 111.535658,44.55136 C112.047895,44.10112 112.301404,43.4679467 112.301404,42.6525867 C112.301404,41.7341867 112.078465,41.0704 111.629605,40.6507733 C111.18,40.2318933 110.592456,40.0228267 109.875921,40.0228267 L109.372632,40.0228267 L109.372632,40.0228267 L109.372632,40.0228267 Z M111.451404,46.3381333 L105.683333,46.3381333 L105.683333,33.5290667 C105.927895,33.54176 106.256711,33.55968 106.671272,33.5776 C107.085088,33.6 107.37886,33.60896 107.551842,33.60896 C107.721842,33.60896 108.010395,33.6 108.416009,33.5776 C108.820877,33.55968 109.137018,33.54176 109.372632,33.5290667 L109.372632,38.9618133 L111.691491,38.9618133 C112.99557,38.9618133 114.059561,39.27392 114.887193,39.9026133 C115.710351,40.53056 116.124912,41.44448 116.124912,42.6481067 C116.124912,43.3746133 115.901974,44.016 115.461316,44.5774933 C115.016184,45.1397333 114.437588,45.5720533 113.725526,45.8752 C113.004518,46.18208 112.247719,46.3381333 111.451404,46.3381333 L111.451404,46.3381333 L111.451404,46.3381333 Z M124.078377,33.5552 C127.763202,33.5552 129.704035,33.5469867 129.900132,33.5290667 L129.900132,46.4411733 C129.712982,46.4322133 129.410263,46.4142933 128.996447,46.3829333 C128.582632,46.3515733 128.266491,46.3381333 128.0525,46.3381333 C127.643158,46.3381333 127.033246,46.3739733 126.214561,46.4411733 L126.214561,35.0798933 L121.732675,35.0798933 L121.732675,46.4411733 C121.518684,46.4322133 121.211491,46.4142933 120.802149,46.3829333 C120.397281,46.3515733 120.090088,46.3381333 119.889518,46.3381333 C119.484649,46.3381333 118.871009,46.3739733 118.042632,46.4411733 L118.042632,33.5290667 C118.261096,33.5469867 120.272763,33.5552 124.078377,33.5552 L124.078377,33.5552 L124.078377,33.5552 Z M136.575614,33.5290667 L136.575614,41.6580267 C138.177939,39.63456 139.994254,36.9249067 142.019342,33.5290667 C142.103596,33.5290667 142.30864,33.54176 142.633728,33.56864 C142.953596,33.59552 143.212325,33.60896 143.407675,33.60896 C143.710395,33.60896 144.155526,33.58208 144.74307,33.5290667 L144.74307,46.4411733 C144.555921,46.4322133 144.253947,46.4142933 143.839386,46.3829333 C143.42557,46.3515733 143.10943,46.3381333 142.896184,46.3381333 C142.486096,46.3381333 141.87693,46.3739733 141.058246,46.4411733 L141.058246,38.2084267 C139.054781,40.7672533 137.239211,43.5127467 135.610044,46.4411733 C135.521316,46.4411733 135.329693,46.4232533 135.0225,46.3874133 C134.719781,46.3560533 134.470746,46.3381333 134.274649,46.3381333 C134.091974,46.3381333 133.629693,46.3739733 132.886316,46.4411733 L132.886316,33.5290667 C133.713947,33.59552 134.328333,33.63136 134.733202,33.63136 C135.178333,33.63136 135.792719,33.59552 136.575614,33.5290667 L136.575614,33.5290667 L136.575614,33.5290667 Z M158.122368,35.31584 C158.041842,35.30688 157.730175,35.2762667 157.187368,35.2225067 C156.640088,35.1687467 156.159167,35.1329067 155.745351,35.1112533 C155.327061,35.0933333 154.748465,35.0843733 154.005088,35.0843733 L154.005088,46.4411733 C153.800044,46.4411733 153.492851,46.4232533 153.083509,46.3874133 C152.67864,46.3560533 152.367719,46.3381333 152.158202,46.3381333 C151.953158,46.3381333 151.645965,46.3560533 151.241096,46.3874133 C150.831754,46.4232533 150.524561,46.4411733 150.320263,46.4411733 L150.320263,35.0843733 C149.58136,35.0843733 149.006491,35.0933333 148.597149,35.1112533 C148.192281,35.1329067 147.715833,35.1687467 147.168553,35.2225067 C146.625746,35.2762667 146.314079,35.30688 146.234298,35.31584 C146.234298,35.2404267 146.255921,35.0933333 146.300658,34.87904 C146.340921,34.6654933 146.363289,34.50944 146.363289,34.4116267 C146.363289,34.3085867 146.340921,34.1614933 146.300658,33.9613867 C146.255921,33.7605333 146.234298,33.61792 146.234298,33.5290667 L158.122368,33.5290667 C158.122368,33.63136 158.1,33.7829333 158.050789,33.97408 C158.006053,34.1659733 157.98443,34.3085867 157.98443,34.4116267 C157.98443,34.50944 158.006053,34.6610133 158.050789,34.86112 C158.1,35.0619733 158.122368,35.2135467 158.122368,35.31584 L158.122368,35.31584 L158.122368,35.31584 Z M170.833596,40.0004267 L162.928596,40.0004267 C162.928596,41.5243733 163.262632,42.73696 163.93443,43.63296 C164.6025,44.52896 165.594912,44.9792 166.912412,44.9792 C167.432851,44.9792 167.976404,44.8679467 168.546053,44.6446933 C169.115702,44.4177067 169.610044,44.1317333 170.032061,43.7755733 L170.326579,44.02048 L169.765132,45.5138133 C169.231272,45.8834133 168.626579,46.1738667 167.945088,46.3918933 C167.264342,46.6061867 166.596272,46.71296 165.946842,46.71296 C164.860482,46.71296 163.881491,46.5524267 163.013596,46.23136 C162.141228,45.9147733 161.406798,45.4466133 160.805833,44.8365867 C160.204868,44.2258133 159.747061,43.4858667 159.439868,42.6167467 C159.132675,41.7521067 158.976842,40.7717333 158.976842,39.67936 C158.976842,38.7482667 159.119254,37.8881067 159.408553,37.0944 C159.697851,36.30144 160.11614,35.6189867 160.663421,35.0485333 C161.206974,34.4736 161.865351,34.03232 162.63557,33.7246933 C163.409518,33.4170667 164.272939,33.2610133 165.230307,33.2610133 C168.964342,33.2610133 170.833596,35.5077333 170.833596,40.0004267 L170.833596,40.0004267 L170.833596,40.0004267 Z M162.928596,38.7213867 L167.153246,38.7213867 C167.153246,37.6962133 167.005614,36.7248 166.716316,35.81088 C166.427018,34.89248 165.942368,34.43328 165.257149,34.43328 C164.406404,34.43328 163.823333,34.87008 163.494518,35.74816 C163.16943,36.62624 162.982281,37.6200533 162.928596,38.7213867 L162.928596,38.7213867 L162.928596,38.7213867 Z M172.943684,53.2642133 L172.943684,33.5290667 C173.134561,33.53728 173.294868,33.5469867 173.42386,33.5552 C173.548377,33.56864 173.699737,33.5776 173.873465,33.59104 C174.042719,33.60448 174.2075,33.61344 174.35886,33.61792 C174.505746,33.62688 174.630263,33.63136 174.736886,33.63136 C174.830833,33.63136 174.955351,33.62688 175.106711,33.61792 C175.25807,33.61344 175.417632,33.60448 175.586886,33.59104 C175.75614,33.57312 175.898553,33.56416 176.018596,33.5552 C176.134912,33.5469867 176.295219,33.53728 176.495044,33.5290667 L176.495044,35.8512 C176.811184,35.0440533 177.278684,34.4116267 177.901272,33.9524267 C178.524605,33.4932267 179.267982,33.2610133 180.12693,33.2610133 C181.066404,33.2610133 181.871667,33.4349867 182.547939,33.7784533 C183.224956,34.1211733 183.772237,34.5893333 184.190526,35.1866667 C184.613289,35.784 184.920482,36.4701867 185.116579,37.2459733 C185.316404,38.02624 185.414825,38.864 185.414825,39.76 C185.414825,41.2839467 185.169518,42.5674667 184.675175,43.61952 C184.186053,44.6670933 183.536623,45.4466133 182.72614,45.9506133 C181.916404,46.4590933 181.030614,46.71296 180.073991,46.71296 C178.582763,46.71296 177.438991,46.0708267 176.632982,44.7917867 L176.632982,53.2642133 C175.911974,53.17536 175.297588,53.1268267 174.79057,53.1268267 C174.279079,53.1268267 173.663947,53.17536 172.943684,53.2642133 L172.943684,53.2642133 L172.943684,53.2642133 Z M178.978684,44.9792 C179.810789,44.88064 180.429649,44.3997867 180.843465,43.5351467 C181.257281,42.6660267 181.462325,41.5072 181.462325,40.0541867 C181.462325,36.66208 180.687632,34.96864 179.143465,34.96864 C178.124211,34.96864 177.438991,35.5122133 177.082588,36.59488 C176.726184,37.6782933 176.548728,38.87744 176.548728,40.18784 C176.548728,43.3835733 177.358465,44.9792 178.978684,44.9792 L178.978684,44.9792 L178.978684,44.9792 Z M198.739693,34.43328 L197.721184,37.2146133 L197.106798,37.2146133 C197.013596,36.4343467 196.724298,35.77504 196.23443,35.2359467 C195.749035,34.7005867 195.121974,34.43328 194.356228,34.43328 C193.590482,34.43328 192.967895,34.7140267 192.478026,35.28 C191.988158,35.8414933 191.636974,36.5329067 191.422982,37.3482667 C191.205263,38.1643733 191.097895,38.9573333 191.097895,39.73312 C191.097895,40.8292267 191.235833,41.7700267 191.511711,42.5450667 C191.788333,43.3208533 192.228246,43.9226667 192.829211,44.3460267 C193.430175,44.7693867 194.200395,44.9792 195.135395,44.9792 C195.646886,44.9792 196.162851,44.8634667 196.684035,44.6357333 C197.204474,44.4087467 197.622763,44.1056 197.93443,43.7262933 L198.388509,44.09664 L197.721184,45.6743467 C197.391623,45.9954133 196.857018,46.2448 196.118114,46.4322133 C195.38443,46.61888 194.725307,46.71296 194.142237,46.71296 C192.762851,46.71296 191.5475,46.4635733 190.488728,45.9640533 C189.429211,45.4600533 188.605307,44.7253333 188.022237,43.7486933 C187.439912,42.7728 187.14614,41.6050133 187.14614,40.2408533 C187.14614,39.1761067 187.310175,38.2129067 187.639737,37.3482667 C187.973772,36.4881067 188.445746,35.75264 189.059386,35.1463467 C189.673772,34.53632 190.417149,34.07264 191.285044,33.7470933 C192.148465,33.4215467 193.109561,33.2610133 194.169079,33.2610133 C194.979561,33.2610133 195.798246,33.3595733 196.621404,33.55072 C197.440833,33.7426133 198.148421,34.0368 198.739693,34.43328 L198.739693,34.43328 L198.739693,34.43328 Z M211.02443,35.31584 C210.943904,35.30688 210.632982,35.2762667 210.08943,35.2225067 C209.542149,35.1687467 209.061228,35.1329067 208.647412,35.1112533 C208.229123,35.0933333 207.650526,35.0843733 206.907149,35.0843733 L206.907149,46.4411733 C206.702851,46.4411733 206.395658,46.4232533 205.986316,46.3874133 C205.580702,46.3560533 205.269035,46.3381333 205.060263,46.3381333 C204.855219,46.3381333 204.548026,46.3560533 204.143158,46.3874133 C203.733816,46.4232533 203.426623,46.4411733 203.222325,46.4411733 L203.222325,35.0843733 C202.483421,35.0843733 201.909298,35.0933333 201.499211,35.1112533 C201.094342,35.1329067 200.617895,35.1687467 200.070614,35.2225067 C199.527807,35.2762667 199.21614,35.30688 199.13636,35.31584 C199.13636,35.2404267 199.158728,35.0933333 199.202719,34.87904 C199.242982,34.6654933 199.265351,34.50944 199.265351,34.4116267 C199.265351,34.3085867 199.242982,34.1614933 199.202719,33.9613867 C199.158728,33.7605333 199.13636,33.61792 199.13636,33.5290667 L211.02443,33.5290667 C211.02443,33.63136 211.002061,33.7829333 210.952851,33.97408 C210.908114,34.1659733 210.886491,34.3085867 210.886491,34.4116267 C210.886491,34.50944 210.908114,34.6610133 210.952851,34.86112 C211.002061,35.0619733 211.02443,35.2135467 211.02443,35.31584 L211.02443,35.31584 L211.02443,35.31584 Z M212.493289,53.2642133 L212.493289,33.5290667 C212.684167,33.53728 212.844474,33.5469867 212.973465,33.5552 C213.098728,33.56864 213.249342,33.5776 213.42307,33.59104 C213.592325,33.60448 213.757105,33.61344 213.908465,33.61792 C214.055351,33.62688 214.179868,33.63136 214.286491,33.63136 C214.380439,33.63136 214.504956,33.62688 214.656316,33.61792 C214.807675,33.61344 214.967237,33.60448 215.136491,33.59104 C215.305746,33.57312 215.448158,33.56416 215.568947,33.5552 C215.684518,33.5469867 215.844825,33.53728 216.044649,33.5290667 L216.044649,35.8512 C216.360789,35.0440533 216.828289,34.4116267 217.450877,33.9524267 C218.074211,33.4932267 218.817588,33.2610133 219.676535,33.2610133 C220.616009,33.2610133 221.421272,33.4349867 222.097544,33.7784533 C222.774561,34.1211733 223.321842,34.5893333 223.740132,35.1866667 C224.162895,35.784 224.470088,36.4701867 224.666184,37.2459733 C224.866754,38.02624 224.96443,38.864 224.96443,39.76 C224.96443,41.2839467 224.719123,42.5674667 224.225526,43.61952 C223.735658,44.6670933 223.086228,45.4466133 222.275746,45.9506133 C221.466009,46.4590933 220.580219,46.71296 219.623596,46.71296 C218.132368,46.71296 216.988596,46.0708267 216.182588,44.7917867 L216.182588,53.2642133 C215.461579,53.17536 214.847939,53.1268267 214.340175,53.1268267 C213.828684,53.1268267 213.214298,53.17536 212.493289,53.2642133 L212.493289,53.2642133 L212.493289,53.2642133 Z M218.528289,44.9792 C219.36114,44.88064 219.979254,44.3997867 220.39307,43.5351467 C220.807632,42.6660267 221.01193,41.5072 221.01193,40.0541867 C221.01193,36.66208 220.237237,34.96864 218.69307,34.96864 C217.673816,34.96864 216.988596,35.5122133 216.632193,36.59488 C216.276535,37.6782933 216.098333,38.87744 216.098333,40.18784 C216.098333,43.3835733 216.90807,44.9792 218.528289,44.9792 L218.528289,44.9792 L218.528289,44.9792 Z M233.451754,46.71296 C232.143202,46.71296 230.977061,46.4501333 229.953333,45.9237333 C228.934079,45.40256 228.142237,44.6491733 227.571842,43.67328 C227.007412,42.6973867 226.721842,41.5602133 226.721842,40.2677333 C226.721842,39.22912 226.882149,38.2756267 227.198289,37.4065067 C227.51443,36.5418667 227.972982,35.79744 228.569474,35.1777067 C229.161491,34.5579733 229.873553,34.0816 230.696711,33.7560533 C231.524342,33.4260267 232.441447,33.2610133 233.451754,33.2610133 C234.791623,33.2610133 235.984605,33.5201067 237.017281,34.0368 C238.053684,34.5490133 238.859693,35.29344 239.429342,36.2656 C240.003465,37.2370133 240.288289,38.37344 240.288289,39.67936 C240.288289,41.03008 240.007939,42.2381867 239.442763,43.3074133 C238.877588,44.3773867 238.076053,45.2106667 237.044123,45.81248 C236.006228,46.4142933 234.809518,46.71296 233.451754,46.71296 L233.451754,46.71296 L233.451754,46.71296 Z M233.638904,34.43328 C232.615175,34.43328 231.862851,34.95968 231.386404,36.0162133 C230.910702,37.072 230.674342,38.46304 230.674342,40.18784 C230.674342,40.9053867 230.754868,41.6722133 230.910702,42.4875733 C231.071009,43.3074133 231.355833,44.016 231.769649,44.6133333 C232.183465,45.2151467 232.744167,45.5138133 233.451754,45.5138133 C234.404649,45.4869333 235.125658,44.84928 235.610307,43.6016 C236.095702,42.35392 236.335789,40.8964267 236.335789,39.22016 C236.335789,37.8522667 236.100175,36.71136 235.632675,35.79744 C235.165175,34.888 234.497851,34.43328 233.638904,34.43328 L233.638904,34.43328 L233.638904,34.43328 Z M246.354605,33.5290667 L246.354605,41.6580267 C247.95693,39.63456 249.773246,36.9249067 251.797588,33.5290667 C251.882588,33.5290667 252.086886,33.54176 252.411974,33.56416 C252.732588,33.59104 252.991316,33.60448 253.186667,33.60448 C253.489386,33.60448 253.934518,33.5776 254.522061,33.5290667 L254.522061,46.4411733 C254.334912,46.4322133 254.032193,46.4142933 253.618377,46.3829333 C253.204561,46.3515733 252.888421,46.3381333 252.67443,46.3381333 C252.265088,46.3381333 251.655921,46.3739733 250.836491,46.4411733 L250.836491,38.2084267 C248.833772,40.7672533 247.018202,43.5127467 245.389035,46.4411733 C245.299561,46.4411733 245.108684,46.4232533 244.801491,46.3874133 C244.498772,46.3560533 244.249737,46.3381333 244.05364,46.3381333 C243.870965,46.3381333 243.408684,46.3739733 242.665307,46.4411733 L242.665307,33.5290667 C243.492939,33.59552 244.107325,33.63136 244.512193,33.63136 C244.957325,33.63136 245.570965,33.59552 246.354605,33.5290667 L246.354605,33.5290667 L246.354605,33.5290667 Z M243.199167,30.0525867 L244.080482,28.87136 C245.477763,30.19072 246.964518,30.8500267 248.535526,30.8500267 C250.12443,30.8500267 251.655921,30.19072 253.132982,28.87136 L253.988202,30.0212267 C253.231404,30.7611733 252.381404,31.3271467 251.432982,31.7146667 C250.485307,32.1021867 249.510044,32.29856 248.513158,32.29856 C247.561009,32.29856 246.626009,32.1111467 245.714123,31.7325867 C244.797018,31.3585067 243.960439,30.7962667 243.199167,30.0525867 L243.199167,30.0525867 L243.199167,30.0525867 Z" id="Fill-2" fill="#488121"></path>
            </g>
        </g>
    </g>
</svg>