<svg xmlns="http://www.w3.org/2000/svg" xmlns:xlink="http://www.w3.org/1999/xlink" xmlns:sketch="http://www.bohemiancoding.com/sketch/ns" width="48px" height="43px" viewBox="0 0 48 43" version="1.1">
    <!-- Generator: Sketch 3.2.2 (9983) - http://www.bohemiancoding.com/sketch -->
    <title>img_logo_text</title>
    <desc>Created with Sketch.</desc>
    <defs/>
    <g id="BUILDING-OF" stroke="none" stroke-width="1" fill="none" fill-rule="evenodd" sketch:type="MSPage">
        <g id="img_logo_text" sketch:type="MSLayerGroup" fill="red">
            <path d="M33.517,33.175 L32.289,33.175 L32.289,31.42 L28.093,31.42 L28.093,33.175 L26.872,33.175 L26.872,30.305 L27.599,30.305 C27.86,29.666 28.05,29.051 28.17,28.449 C28.279,27.847 28.342,27.015 28.342,25.954 L28.342,25.065 L32.643,25.065 L32.643,30.305 L33.517,30.305 L33.517,33.175 L33.517,33.175 Z M31.361,30.305 L31.361,26.182 L29.556,26.182 C29.556,26.229 29.556,26.409 29.549,26.714 C29.545,27.017 29.541,27.188 29.541,27.224 C29.519,28.316 29.312,29.343 28.919,30.305 L31.361,30.305 Z M40.17,29.626 C40.17,30.18 39.995,30.615 39.651,30.936 C39.308,31.259 38.842,31.42 38.241,31.42 L35.096,31.42 L35.096,25.065 L38.146,25.065 C38.733,25.065 39.2,25.218 39.545,25.526 C39.896,25.839 40.064,26.251 40.064,26.768 C40.064,27.405 39.772,27.86 39.178,28.136 C39.838,28.434 40.17,28.935 40.17,29.626 Z M38.811,26.857 C38.811,26.604 38.728,26.413 38.571,26.274 C38.407,26.139 38.174,26.069 37.871,26.069 L36.367,26.069 L36.367,27.668 L37.871,27.668 C38.498,27.668 38.811,27.4 38.811,26.857 M38.911,29.542 C38.911,29.265 38.823,29.051 38.652,28.896 C38.482,28.737 38.241,28.661 37.943,28.661 L36.367,28.661 L36.367,30.433 L37.943,30.433 C38.241,30.433 38.482,30.347 38.652,30.185 C38.823,30.023 38.911,29.808 38.911,29.542 Z M46.985,28.625 L42.873,28.625 C42.901,29.813 43.456,30.406 44.536,30.406 C45.076,30.406 45.571,30.184 46.036,29.742 L46.833,30.508 C46.472,30.867 46.112,31.118 45.768,31.271 C45.419,31.42 44.996,31.497 44.49,31.497 C43.539,31.497 42.819,31.219 42.334,30.662 C41.853,30.108 41.609,29.292 41.609,28.212 C41.609,27.217 41.848,26.427 42.33,25.854 C42.812,25.273 43.47,24.989 44.306,24.989 C45.121,24.989 45.774,25.263 46.261,25.815 C46.745,26.368 46.985,27.11 46.985,28.048 L46.985,28.625 Z M45.734,27.722 C45.651,26.61 45.176,26.054 44.306,26.054 C43.828,26.054 43.475,26.208 43.247,26.524 C43.016,26.838 42.891,27.236 42.873,27.722 L45.734,27.722 Z M5.115,42.791 L3.84,42.791 L3.84,37.55 L1.305,37.55 L1.305,42.791 L0.026,42.791 L0.026,36.433 L5.115,36.433 L5.115,42.791 Z M11.829,42.791 L10.573,42.791 L10.573,42.212 C10.321,42.465 10.074,42.633 9.832,42.724 C9.589,42.808 9.274,42.853 8.878,42.853 C8.165,42.853 7.621,42.688 7.24,42.361 C6.862,42.031 6.67,41.556 6.67,40.935 C6.67,40.357 6.868,39.908 7.255,39.58 C7.641,39.254 8.176,39.093 8.859,39.093 L10.56,39.093 L10.56,38.627 C10.56,38.218 10.445,37.919 10.222,37.733 C9.995,37.541 9.631,37.452 9.131,37.452 C8.782,37.452 8.492,37.505 8.276,37.609 C8.109,37.689 7.942,37.837 7.761,38.063 L6.923,37.275 C7.24,36.93 7.518,36.709 7.749,36.611 C8.093,36.442 8.567,36.36 9.172,36.36 C10.941,36.36 11.829,37.086 11.829,38.536 L11.829,42.791 Z M10.56,40.496 L10.56,39.993 L9.052,39.993 C8.294,39.993 7.91,40.295 7.91,40.896 C7.91,41.5 8.332,41.802 9.172,41.802 C9.661,41.802 10.015,41.697 10.234,41.5 C10.451,41.301 10.56,40.964 10.56,40.496 Z M19.399,42.791 L18.122,42.791 L18.122,37.55 L16.265,37.55 L16.194,40.242 C16.142,41.943 15.472,42.791 14.186,42.791 L13.492,42.791 L13.492,41.675 L13.759,41.675 C14.503,41.675 14.891,41.105 14.925,39.969 L15.021,36.433 L19.399,36.433 L19.399,42.791 Z M26.432,39.58 C26.432,40.225 26.378,40.738 26.26,41.117 C26.154,41.498 25.961,41.831 25.7,42.116 C25.21,42.616 24.57,42.867 23.785,42.867 C23.009,42.867 22.38,42.616 21.894,42.116 C21.626,41.831 21.437,41.498 21.314,41.117 C21.2,40.738 21.141,40.233 21.141,39.606 C21.141,38.988 21.2,38.487 21.314,38.109 C21.437,37.725 21.626,37.395 21.894,37.114 C22.38,36.611 23.009,36.36 23.785,36.36 C24.57,36.36 25.21,36.611 25.7,37.114 C25.961,37.387 26.154,37.715 26.26,38.096 C26.378,38.476 26.432,38.969 26.432,39.58 Z M25.167,39.635 C25.167,38.784 25.031,38.213 24.766,37.911 C24.517,37.637 24.188,37.5 23.785,37.5 C23.38,37.5 23.055,37.641 22.811,37.924 C22.554,38.241 22.421,38.818 22.421,39.655 C22.421,40.459 22.56,41.017 22.837,41.321 C23.061,41.59 23.38,41.725 23.785,41.725 C24.207,41.725 24.536,41.585 24.779,41.301 C25.044,40.989 25.167,40.434 25.167,39.635 Z M32.88,42.791 L31.601,42.791 L31.601,40.242 C31.066,40.469 30.515,40.586 29.959,40.586 C29.364,40.586 28.887,40.417 28.525,40.082 C28.158,39.749 27.974,39.296 27.974,38.726 L27.974,36.433 L29.258,36.433 L29.258,38.45 C29.258,38.803 29.348,39.06 29.541,39.217 C29.736,39.378 29.982,39.449 30.286,39.443 C30.819,39.443 31.258,39.322 31.601,39.08 L31.601,36.433 L32.88,36.433 L32.88,42.791 Z M40.508,42.791 L38.936,42.791 L37.118,39.969 L36.204,41.009 L36.204,42.791 L34.924,42.791 L34.924,36.433 L36.204,36.433 L36.204,39.455 L38.74,36.433 L40.305,36.433 L37.985,39.04 L40.508,42.791 Z M47.036,42.791 L45.757,42.791 L45.757,38.416 L43.04,42.791 L41.758,42.791 L41.758,36.433 L43.04,36.433 L43.04,40.749 L45.757,36.433 L47.036,36.433 L47.036,42.791 Z M32.49,20.036 C32.49,11.071 25.221,3.806 16.256,3.806 L16.256,7.445 C20.567,7.445 24.37,9.61 26.64,12.917 C21.305,13.634 16.796,16.942 14.418,21.535 C11.715,16.325 6.276,12.763 0.004,12.763 L0,16.404 C6.956,16.404 12.595,22.04 12.595,28.993 L16.242,28.993 C16.242,22.215 21.601,16.688 28.315,16.418 C28.657,17.566 28.847,18.778 28.847,20.036 L32.49,20.036 Z M43.313,2.728 L36.065,6.453 C33.882,7.708 32.416,10.067 32.416,12.763 C32.416,13.728 32.604,14.651 32.946,15.494 C33.565,13.969 34.681,12.705 36.093,11.898 L43.411,8.139 C45.591,6.884 47.056,4.526 47.056,1.83 C47.056,1.2 46.975,0.584 46.828,0 C45.857,1.123 44.751,1.947 43.313,2.728 Z" id="Fill-3" sketch:type="MSShapeGroup"/>
        </g>
    </g>
</svg>
