<svg xmlns="http://www.w3.org/2000/svg" viewBox="0 0 626.0255127 144.1353455">
	<g fill="#f28c00">
		<path d="M349.04 100.636c.02.022.038.044.054.066.568.548 1.168 1.055 1.806 1.514 2.18 1.57 4.705 2.57 7.505 2.97.922.13 1.875.196 2.86.196 1.854 0 3.814-.234 5.855-.7 4.205-.962 8.822-2.894 13.982-5.86 1.324 1.802 3.008 3.28 4.95 4.315 1.69.9 4.145 1.767 7.334 1.767 1.556 0 3.287-.207 5.188-.717 4.525-1.214 8.556-4.343 12.29-9.617.154.385.317.757.49 1.115 2.213 4.547 6.715 7.762 11.75 8.39.6.075 1.242.12 1.923.12 3.387 0 7.715-1.1 12.392-5.01 1.278 1.638 2.865 2.988 4.676 3.952 1.688.9 4.144 1.767 7.333 1.767 1.556 0 3.286-.207 5.188-.717 4.813-1.292 9.068-4.75 13-10.654 3.22 6.81 9.614 10.85 16.774 10.85 1.836 0 3.723-.267 5.62-.82 4.287-1.25 8.315-3.726 12.05-7.393-2.263-4.115-3.284-9.913-3.064-17.512-.188.32-.376.634-.565.943-3.837 6.245-8.02 10.174-12.096 11.363-1.62.472-3.133.368-4.377-.3-1.28-.69-2.26-1.943-2.832-3.624-2.332-6.837-.135-16.12 1.804-24.31.298-1.258.606-2.56.89-3.814.483-2.145.972-4.216 1.47-6.225.437-1.572.865-3.128 1.285-4.653.86-3.125 1.673-6.078 2.444-8.738 1.003-3.456-.964-7.074-4.41-8.112-3.444-1.037-7.082.892-8.156 4.325-1.36 4.35-2.634 8.92-3.856 13.836-2.51 9.025-5.334 18.65-8.692 26.726-5.458 13.124-9.562 15.132-10.69 15.434-2.663.715-3.28-.148-3.51-.473-.745-1.045-.736-2.67-.457-3.31 3.026-1.67 4.257-5.434 2.742-8.588-1.57-3.268-5.49-4.644-8.758-3.074-2.792 1.34-4.924 3.696-6.147 6.74-.005.03-.012.06-.023.088-.726 1.913-1.002 3.758-1.104 4.97-.216 2.532.177 4.89 1.166 7.01.1.214.02.468-.183.587-.072.043-.152.064-.23.064-.143 0-.283-.067-.37-.19-.442-.613-1.784-2.478-2.078-7.318-.034-.546-.015-1.368.084-2.29-.26.223-.504.468-.73.737-3.067 3.633-5.57 4.752-6.89 4.588-.902-.112-1.44-.837-1.572-1.107-.307-.63-1.268-3.255-.755-10.522.34-4.79 1.244-10.674 2.69-17.49.69-3.245 1.438-6.395 2.16-9.258.436-1.567.862-3.115 1.28-4.634.86-3.126 1.674-6.08 2.445-8.74 1-3.452-.964-7.07-4.406-8.108-3.443-1.04-7.08.884-8.158 4.315-.103.326-1.89 6.04-3.874 13.896-2.507 9.012-5.326 18.617-8.677 26.676-5.458 13.124-9.563 15.132-10.69 15.434-2.664.715-3.28-.148-3.51-.473-.745-1.045-.736-2.67-.457-3.31 3.027-1.67 4.258-5.434 2.742-8.588-1.57-3.268-5.49-4.644-8.757-3.074-3.367 1.618-5.778 4.71-6.786 8.71-.03.122-.058.246-.086.37l-.023.014c-.24 1.045-.362 1.986-.423 2.703-.215 2.533.177 4.892 1.166 7.01.1.215.02.47-.183.588-.072.043-.15.064-.23.064-.143 0-.282-.067-.37-.19-.442-.613-1.783-2.478-2.078-7.318-.024-.393-.02-.928.02-1.54-4.672 2.838-8.696 4.654-12.004 5.41-1.792.41-4.222.688-5.62-.32-1.044-.75-1.862-2.39-2.37-4.645-.952-2.6-1.104-6.32-.448-11.128.82-6.006 2.593-11.424 2.61-11.477.03-.09.073-.17.126-.24 1.272-3.804 2.86-7.365 4.74-10.617 1.52-2.628 3.89-6.342 6.93-8.256 1.21-.762 2.712-1.2 4.137-1.2.8 0 1.59.146 2.258.424 1.02.425 1.744 1.278 2.087 2.327 1.087 3.327-.05 6.902-7.86 12.482-3.476 2.484-7.208 4.606-11.135 6.735-.546 1.856-1.615 5.8-2.196 10.054-.324 2.385-.442 4.48-.358 6.266l.347-.193.46-.255c1.672-.93 3.41-1.863 5.092-2.765 5.126-2.75 10.426-5.593 15.42-9.162 3.204-2.288 7.246-5.465 10.09-9.752 1.608-2.42 2.683-4.983 3.198-7.618.585-2.99.455-6.088-.385-9.206-1.404-5.215-4.948-9.17-9.978-11.138-5.77-2.257-12.733-1.53-18.172 1.893-5.5 3.463-9.082 8.96-11.298 12.794-2.872 4.968-5.18 10.477-6.86 16.373-.418 1.463-1.1 4.11-1.65 7.444-.01.1-.034.238-.078.505-.016.09-.033.19-.05.302-.252 1.64-.466 3.428-.598 5.31l-.023.02c-.125 1.896-.168 4.115-.006 6.497.492 7.24 2.658 13.06 6.437 17.296zM620.778 109.71c-1.665-1.354-3.718-1.05-3.737-1.047l-.037.006c-.616.067-1.115.197-1.525.396-.01.005-.018.01-.027.012-.447.183-.886.488-1.304.907-.358.364-.667.826-.89 1.333-.494 1.126-.533 2.25-.48 2.994.05.918.29 1.654.467 2.192.225.52.354.813.354.813.097.222.005.48-.21.59-.067.034-.138.05-.207.05-.158 0-.31-.08-.395-.226l-.462-.79c-.008-.013-.016-.03-.023-.044l-.08-.18c-.246-.544-.582-1.286-.717-2.258-.144-.885-.216-2.26.273-3.724.096-.283.21-.553.337-.81.14-.246.09-.52-.125-.67-.12-.087-.242-.103-.386-.073-14.31 3.723-29.152 6.71-48.846 9.848-52.24 8.323-107.118 8.72-163.107 1.18-13.583-1.83-78.946-9.436-113.54-10.702-14.813-.543-31.673 1.406-46.45 3.822-.694 3.675-1.655 8.81-2.552 13.744 15.187-2.656 33.2-5.01 48.523-4.45 32.282 1.182 96.335 8.447 112.267 10.593 27.185 3.66 54.123 5.492 80.647 5.49 29.34 0 58.176-2.238 86.278-6.715 15.26-2.432 33.536-5.637 53.37-10.976 3.5-.942 5.574-4.543 4.632-8.043-.354-1.316-1.085-2.43-2.046-3.26zM623.246 68.053c-2.96-2.09-7.056-1.383-9.146 1.578-4.306 6.103-12.81 16.784-21.39 19.76-2.767.96-5.54.89-7.237-.182-3.226-2.04-4.39-8.62-4.46-11.57.15-8.973 3.783-19.718 9.495-28.067 3.157-4.614 6.36-7.185 9.022-7.24h.084c1.804 0 3.09 1.19 3.322 1.496 1.46 2.102 1.19 3.593.05 7.313-.882 2.88-2.383 5.9-4.4 8.883-.083.146-.137.325-.098.482.034.137.165.262.41.294.545.008 1.102.095 1.66.258 1.483.44 2.567 1.29 3.217 1.923.71.663 1.126 1.364 1.43 1.876l.1.17c.01.015.017.03.025.045l.38.833c.102.22.014.48-.2.593-.213.113-.48.04-.604-.166l-.463-.758c-.34-.452-.804-1.07-1.52-1.634-.585-.477-1.527-1.09-2.734-1.333-.544-.107-1.1-.12-1.605-.035-.58.1-1.082.285-1.49.546-.007.006-.015.01-.024.016-.398.22-.79.555-1.2 1.02l-.027.03c-.01.008-.73.77-1.094 1.974-.503 2.332.287 4.855 2.26 6.468 2.808 2.293 6.943 1.876 9.235-.93 4.368-5.347 7.58-11.126 9.29-16.71 1.276-4.163 3.41-11.13-1.83-18.66-2.288-3.29-7.346-7.12-14.087-7.12h-.07c-3.535.014-7.003 1.09-10.308 3.194-3.396 2.164-6.614 5.448-9.565 9.76-3.533 5.166-6.486 11.16-8.54 17.336-.19.578-.373 1.158-.55 1.738-.297.812-.587 1.627-.872 2.443-.553 1.588-1.088 3.182-1.61 4.78-.673 2.05-1.374 4.093-2.113 6.122-.62 1.7-1.265 3.39-1.964 5.057-.57 1.365-1.177 2.716-1.84 4.037-.172.34-.347.68-.526 1.014-2.445 4.58-4.185 5.733-4.82 6.016-.256.115-.686.307-1.832-.186-.27-.115-1.434-1.608-1.797-6.346-.352-4.622.143-10.82 1.475-18.418.47-2.678 1.01-5.338 1.576-7.88 1.985-6.185 3.738-12.716 5.168-19.323.74-3.418-1.33-6.816-4.708-7.725-3.376-.91-6.873.99-7.95 4.316-.143.44-2.84 8.816-5.21 19.375-2.62 8.064-5.64 15.413-8.816 21.332-5.295 9.866-10.788 15.377-15.255 15.376-.328 0-.65-.028-.965-.088-1.83-.345-2.965-1.15-3.797-2.688-.794-1.47-1.82-4.617-1.442-10.77l.003-.005c.032-.453.137-1.707.395-3.6.11-.866.247-1.868.416-2.994.59-3.917 1.695-10.18 3.627-17.77.282-1.106.672-1.757 1.19-1.99.302-.135.637-.123.944.036.488.252.635.767.437 1.53-.13.502-.4 1.13-.714 1.86-.37.858-.788 1.83-1.115 2.896-1.527 4.982-2.496 9.372-3.107 12.783 0 .05.002.097.01.145.06.373.414.625.786.563.246-.04.425-.195.526-.413 1.28-2.702 2.708-5.812 4.09-9.022 2.37-5.5 4.115-10.16 5.186-13.854 1.354-4.67 2.385-9.962-.242-13.8-1.725-2.52-4.638-3.82-7.79-3.48-1.356.147-3.762.827-5.522 3.642l-.05.073c-.406.488-.747 1.045-1.005 1.66-1.74 3.164-4.698 9.944-8.15 23.64-.45 1.71-.853 3.378-1.207 4.995l-.025.108.003-.003c-.245 1.13-.468 2.236-.664 3.316-.325 1.785-.584 3.51-.78 5.173-.17 1.94-.27 3.77-.302 5.49-.092 5.055.407 9.29 1.488 12.647.412 1.205.902 2.334 1.468 3.382 2.72 5.035 7.185 8.268 12.912 9.348 1.022.193 2.177.32 3.44.32 4.02 0 9.13-1.3 14.54-5.963 2.35-2.025 4.65-4.593 6.88-7.678.363 1.522.83 2.91 1.404 4.183 2.07 4.585 5.206 6.708 7.47 7.68 4.208 1.808 8.486 1.846 12.37.11 3.615-1.615 6.804-4.724 9.7-9.465 1.714 3.02 3.927 5.418 6.566 7.086 2.733 1.727 6.024 2.718 9.515 2.864.307.013.614.02.924.02 2.68 0 5.464-.48 8.112-1.398 4.082-1.416 8.28-3.9 12.475-7.386C614.61 90.15 619.77 84.36 624.824 77.2c2.09-2.962 1.384-7.057-1.578-9.147zM212.886 115.05c-1.038-4.414-4.07-7.768-8.536-9.443-.17-.064-.34-.12-.515-.17-.595-.172-2.743-.72-5.412-.57-4.583.252-8.298 2.413-10.46 6.082-2.147 3.642-2.472 8.43-.87 12.81.148.403.31.794.486 1.177 1.26-.1 2.848-.33 4.154-.84 3-1.17 5.416-2.532 7.192-4.052-.78-.926-1.13-1.944-.945-2.792.134-.605.486-1.072.995-1.316.487-.233 1.072-.238 1.527-.013.495.246 1.552 1.027.682 2.98-.227.51-.667 1.11-1.346 1.83l-.025.03-.012.01-.03.037c-.023.028-.046.054-.07.078-.022.024-.047.044-.073.062-1.234 1.227-5.208 4.8-10.814 6.198l.008.012c-3.58.978-7.5 1.03-11.345.152-4.985-1.14-9.723-3.816-13.702-7.737-4.678-4.61-8.234-10.766-10.57-18.3-3.817-12.308-3.343-26.378-1.402-38.824.082-.746.225-1.616.413-2.56l-.037.062.052-.14-.083.192s.08-.316.228-.882c.998-4.652 2.857-10.603 3.36-12.18 2.036-6.975 4.498-14.585 6.132-16.877.22-.31.552-.564 1-.408.028.01.055.022.082.036.373.182.364.58.32.898-.382 2.72-3.055 9.825-5.685 16.37-.01.052-.014.105-.013.16.01.44.374.79.815.78.25-.007.457-.118.606-.3 1.424-2.585 3.037-5.544 4.673-8.604 9.13-17.08 11.097-22.443 11.782-24.993.574-2.136.674-4.047.305-5.844-.52-2.532-1.945-4.692-4.12-6.248-2.342-1.673-5.335-2.288-8.213-1.687-3.087.644-5.72 2.56-7.414 5.395-2.57 4.298-9.447 19.204-14.313 37.844-1.087 4.165-2.006 8.26-2.754 12.268-4.512 8.2-10.333 16.265-15.585 23.304-.19-2.137-.39-4.263-.59-6.38-.237-2.538-.483-5.162-.707-7.72-.208-2.37-.4-4.814-.585-7.475-.222-3.182-.423-6.483-.608-9.986-.045-.258-.094-1.035-.19-3.616-.09-2.498-.167-5.428-.21-8.04-.087-5.412-.08-12.13.455-13.404.14-.333.458-.537.774-.495.29.038.496.228.583.535.412 1.456.097 8.244-.287 14.273-.002.063.004.127.025.19.095.28.398.432.68.338.172-.058.287-.186.342-.35 2.225-10.648 2.87-17.95 2.88-18.083l.026-.32c.192-2.324.55-6.65-2.023-10.23-1.733-2.41-4.707-3.883-7.767-3.836-2.967.043-5.71 1.508-7.34 3.92-2.696 3.99-2.788 10.02-2.752 11.773.063 3.065.146 6.275.247 9.54.143 4.612.317 9.148.517 13.482.027.605.056 1.202.084 1.795-1.682 6.186-3.868 12.917-6.688 19.62-5.534 13.155-12.39 23.62-20.382 31.103-4.582 4.292-9.6 7.638-14.913 9.947-5.82 2.53-12.192 3.895-18.94 4.06-7.278.18-13.977-1.48-19.374-4.792-5.634-3.46-9.482-8.473-11.437-14.902-1.743-5.73-1.82-12.013-.22-17.695 1.635-5.81 4.87-10.598 9.352-13.845 3.863-2.798 8.803-4.605 13.912-5.09 5.163-.487 10.08.462 13.846 2.674 5.224 3.068 8.042 8.21 7.73 14.103-.153 2.924-1.077 5.763-2.67 8.208-1.043 1.6-2.353 2.98-3.863 4.092-.102.083-.2.18-.218.303-.017.112.023.238.137.365l.014.015c.833.933 1.427 2.205 1.627 3.483.16.936.11 1.942-.144 2.903-.18.658-.348 1.007-.355 1.022-.078.162-.24.258-.41.258-.06 0-.12-.012-.18-.037-.224-.096-.333-.35-.248-.58 0 0 .115-.32.22-.89.08-.446.177-1.348-.073-2.38-.225-.98-.753-1.91-1.448-2.555-.094-.087-.19-.17-.264-.232-1.36-1.155-3.728-1.653-5.756-.998-.293.114-.582.25-.865.406-3.332 1.854-4.53 6.06-2.677 9.39 1.886 3.39 5.437 5.19 9.5 4.81 1.976-.183 3.57-.85 4.068-1.076 5.104-2.32 9.427-6.04 12.504-10.76 2.918-4.478 4.61-9.673 4.892-15.02.584-11.058-4.847-21.053-14.528-26.74-6.34-3.723-13.996-5.283-22.14-4.513-7.528.713-14.884 3.43-20.714 7.654C9.173 52.35 4.144 59.71 1.656 68.544c-2.307 8.192-2.2 17.232.3 25.456 2.925 9.618 8.95 17.45 17.425 22.654 7.674 4.71 16.99 7.072 26.94 6.83 16.442-.404 30.95-6.422 43.12-17.89 7.643-7.202 14.325-16.542 19.927-27.84.55 5.958 1.064 11.984 1.34 17.986.033.418.04.565.034.647.203 3.454.495 9.86-.034 14.973-.136 1.313-.363 3.195-.676 4.7-.408 1.965-.845 2.808-1.46 2.808h-.016c-.19-.007-.348-.088-.47-.235-.59-.712-.26-3.266.275-6.796.06-.403.118-.784.167-1.13.412-2.867.93-6.676 1.255-10.256 0-.02-.002-.042-.006-.063-.05-.244-.286-.4-.53-.353-.1.02-.184.072-.246.143-1.696 3.348-3.267 6.966-4.474 10.345-1.058 2.964-1.817 5.673-2.256 8.052-.604 3.266-.61 5.948-.02 8.2.9 3.43 2.963 5.21 4.537 6.096 3.07 1.73 6.527 1.82 9.482.247 2.943-1.567 5.062-4.523 6.477-9.036 1.087-3.467 1.445-6.857 1.548-8.154.408-5.124.502-10.254.396-15.368 1.762-2.646 4.293-6.017 7.145-9.814 1.523-2.03 3.123-4.16 4.757-6.378.302 7.6 1.446 14.633 3.42 21 3.018 9.73 7.75 17.82 14.067 24.045 5.806 5.723 12.83 9.652 20.316 11.364 2.826.647 5.692.97 8.532.97 3.314 0 6.593-.44 9.73-1.317 5.964-1.667 11.29-4.878 15.4-9.286 1.846-1.98 3.303-4.422 4.212-7.06 1.065-3.088 1.278-6.21.616-9.03zM50.464 84.068c-.016.008-.025.012-.03.013.017-.006.04-.016.067-.028l-.036.016zM215.246 117.943c-.054 4.148-1.268 9.495-5.766 14.632 1.11-.23 2.36-.496 3.753-.792 1.813-.385 3.86-.82 6.095-1.283l2.447-13.896c-2.33.466-4.515.918-6.53 1.34z"></path>
		<path d="M340.896 83.458c-.12-1.735-.13-3.384-.084-4.89l-.302.29c-2.986 2.88-6.37 6.14-9.73 8.59-3.187 2.32-5.836 3.544-7.876 3.637-.705.032-2.85.13-3.618-.99-.317-.463-1.304-2.353-.677-7.23.52-4.05 2-8.927 4.28-14.1.836-1.9 1.63-3.62 2.378-5.177l.055-.026c2.46-5.41 5.495-10.22 9.03-14.312.53-.616 1.5-1.045 2.248-.626.496.277.762.834.678 1.418-.093.65-.596 1.155-1.312 1.32-2.18.498-5.21 4.44-8.59 11.15.26-.145.515-.292.772-.444.738-.387 2.962-1.593 5.35-3.313 4.6-3.313 7.25-6.67 8.096-10.26.712-3.023.078-6.07-1.787-8.577-1.9-2.556-4.882-3.873-7.975-3.525-3.784.427-7.33 3.184-11.154 8.676-1.5 2.15-3.055 4.736-4.66 7.734-1.813.232-3.545-.033-5.223-.794l-.168-.078c-4.54-1.693-7.6-4.57-9.903-9.308-.37-.763-.18-1.54.175-1.97.294-.358.713-.507 1.12-.398.654.173 1.097.917 1.32 2.21.608 3.554 4.167 6.564 6.5 7.565.134.06.66.27.864.35l.09-.32c1.796-6.667 1.02-11.86-2.31-15.435-2.364-2.537-6.043-3.84-9.373-3.32-3.16.496-5.796 2.527-7.23 5.574-1.348 2.868-1.822 5.693-1.448 8.636.404 3.182 1.83 6.388 4.245 9.555-.682 1.345-1.48 2.825-2.414 4.453-3.762 6.554-7.887 12.245-8.666 13.306-3.576 4.12-7.097 7.557-10.544 10.294 3.385-6.725 6.154-14.77 7.665-22.453.843-4.287 1.042-8.8.56-12.702-.67-5.404-2.56-9.684-5.618-12.72-2.826-2.808-7.953-5.795-16.332-4.088-1.07.218-2.09.556-3.15.99-2.255.924-4.028 2.346-4.652 4.534-.266.935-.66 1.45-1.17 1.527-.04.007-.082.01-.122.01-.282 0-.543-.148-.716-.41-.278-.426-.268-1.027.027-1.497.515-.82 1.06-1.546 1.632-2.198.23-.262.083-.46.022-.58-.89-1.773-2.567-3.124-4.667-3.516-3.56-.665-6.988 1.684-7.653 5.246l-4.486 24.006c-.033.176-.058.352-.077.528l-1.87 10.062c-.108.26-.2.53-.276.81-2.864 10.75-5.96 15.632-8.052 17.835-1.922 2.024-3.356 2.2-4.39 2.13-.752-.053-2.178-.343-3.27-1.705-1.157-1.445-2.892-5.243-1.498-14.45 1.484-9.792 4.392-21.676 6.268-28.874L223 39.03c.012-.038.02-.078.03-.117.014-.056.028-.113.04-.17.012-.05.022-.103.032-.154l.033-.175c.01-.05.016-.102.023-.153.01-.058.018-.117.025-.175.006-.05.01-.102.015-.153l.015-.173.008-.154c.003-.057.006-.113.007-.17v-.157c0-.056 0-.112-.002-.167l-.008-.16-.01-.16c-.005-.054-.01-.108-.017-.162-.005-.05-.01-.103-.017-.154-.007-.055-.016-.11-.025-.165l-.024-.15c-.01-.054-.02-.11-.033-.163l-.03-.147-.04-.163c-.013-.048-.025-.096-.04-.144-.014-.054-.03-.107-.047-.16l-.045-.142-.056-.157-.052-.14c-.02-.05-.04-.1-.063-.152-.02-.045-.038-.092-.06-.137-.02-.05-.044-.1-.068-.148l-.067-.137c-.024-.048-.05-.095-.075-.143l-.074-.136c-.026-.047-.053-.092-.08-.137l-.082-.135-.085-.13c-.03-.044-.06-.09-.09-.132l-.09-.124c-.032-.044-.064-.088-.097-.13-.03-.04-.063-.08-.095-.12l-.105-.126c-.032-.038-.066-.075-.1-.113l-.11-.122-.106-.107c-.04-.04-.078-.08-.118-.118-.036-.035-.073-.07-.11-.103-.04-.038-.082-.075-.123-.112-.04-.033-.08-.066-.118-.1-.042-.034-.084-.07-.127-.103-.04-.033-.083-.064-.125-.096-.043-.03-.086-.064-.13-.095-.044-.032-.09-.062-.133-.092l-.133-.09c-.046-.03-.094-.057-.14-.086l-.135-.08c-.05-.03-.1-.056-.15-.083-.045-.024-.09-.05-.136-.073l-.157-.075-.14-.065c-.053-.024-.108-.047-.162-.07-.048-.02-.095-.04-.143-.058-.055-.022-.11-.04-.166-.06-.05-.02-.1-.037-.15-.054l-.166-.052c-.04-.01-.077-.025-.117-.036l-.043-.01c-.014-.005-.027-.01-.04-.013-.045-.012-.09-.02-.132-.032-.05-.012-.098-.025-.148-.036-.056-.014-.113-.025-.17-.036l-.15-.03c-.057-.01-.114-.017-.17-.025-.05-.008-.1-.016-.15-.022-.06-.008-.12-.013-.18-.018l-.138-.014c-.074-.005-.15-.008-.224-.01l-.092-.005c-.105-.002-.21-.002-.315 0l-.096.005-.22.01-.114.012c-.066.006-.132.01-.197.02-.04.004-.08.01-.12.016l-.19.028-.123.025c-.06.01-.122.023-.183.036l-.123.03-.177.045c-.04.01-.082.023-.123.035l-.173.052c-.042.013-.082.028-.123.04l-.17.06-.12.05c-.056.02-.11.043-.165.066l-.122.053-.16.075-.12.06-.152.08-.118.066-.148.088-.117.072c-.048.03-.095.062-.143.094l-.113.076-.14.1-.108.083c-.047.035-.09.07-.136.108l-.105.087c-.046.038-.09.078-.133.117l-.098.088c-.047.042-.09.086-.134.13-.03.03-.06.057-.088.086-.05.05-.098.104-.145.156l-.066.07c-.07.08-.136.158-.2.24-.008.008-.016.02-.023.028-.057.072-.114.145-.168.22-.02.026-.037.053-.055.08-.04.058-.083.117-.122.178l-.06.096c-.037.057-.073.114-.107.173l-.06.104-.094.173c-.02.037-.038.075-.057.113-.03.057-.058.115-.086.174l-.053.12c-.024.058-.05.116-.074.176-.017.04-.033.084-.05.126-.013.037-.028.073-.042.11-.73-.587-1.505-1.114-2.326-1.575-4.073-2.288-8.773-2.724-13.59-1.258-4.597 1.397-9.178 4.51-13.618 9.248-5.705 6.09-10.257 14.5-12.816 23.68-2.53 9.072-2.85 17.814-.9 24.613 1.99 6.943 6.35 11.654 12.283 13.283.71.212 2.115.538 4.023.538 2.315 0 5.37-.48 8.83-2.224 3.57-1.802 6.908-4.614 10-8.418.01-.015.044-.055.047-.06.13-.195.076-.414.045-.538-.364-1.494-.588-3.204-.678-5.157-.026-.564.227-1.055.662-1.28.352-.183.76-.15 1.065.088.26.203.655.72.38 1.906-.564 2.413.02 5.688 1.334 7.86.31.466.636.918.984 1.35 3.083 3.848 7.677 6.25 12.604 6.59.416.03.828.043 1.24.043 2.176 0 4.288-.403 6.3-1.192l-6.285 33.792c-.662 3.563 1.69 6.99 5.252 7.652.405.075.808.11 1.207.11 3.1 0 5.857-2.205 6.444-5.363l7.19-38.656c.85.532 1.743.994 2.667 1.378.083.042.166.083.25.122 2.845 1.297 6.783 2.487 11.663 2.487 3.22 0 6.848-.517 10.842-1.863 9.312-3.138 18.766-10.208 28.1-21.016.102-.116.2-.238.293-.362.24-.32 5.91-7.943 10.734-16.71l.213-.39c1.65.79 3.347 1.374 5.078 1.75-2.293 5.587-3.813 10.97-4.42 15.682-.87 6.782.094 12.274 2.868 16.324 1.625 2.37 3.798 4.15 6.46 5.29 2.496 1.07 5.384 1.538 8.582 1.393 7.27-.33 13.902-4.846 19.705-9.912-1.262-3.185-2.036-6.802-2.31-10.827zm-135.88-30.594c-.01 1.413-.207 2.826-.485 4.205-.247 1.232-.6 2.457-.972 3.66-5.288 17.137-10.973 24.39-14.814 27.454-3.133 2.5-5.22 2.334-5.56 2.285-.05-.015-.1-.03-.152-.043-1.402-.372-2.47-1.802-3.17-4.25-1.253-4.37-.907-10.902.925-17.473 2.002-7.18 5.465-13.655 9.752-18.23 4.47-4.774 8.642-6.648 11.198-5.52.36.158.696.372.993.632.93.812 1.477 2.036 1.827 3.196.397 1.318.468 2.714.458 4.082zm62.823 5.274c-1.582 8.04-4.824 16.93-8.568 23.026-1.974 3.214-3.944 5.58-5.918 7.052-2.33 1.74-3.942 1.53-4.412 1.458-.595-.09-2.104-.462-3.247-2.01-1.424-1.927-1.938-5.207-1.477-9.314l.915-4.92c.074-.242.136-.49.183-.744.772-4.212 3.22-11.42 6.947-18.023 4.08-7.23 7.848-10.062 9.7-10.697 1.285-.442 3.203-.57 4.448.594 2.484 2.324 2.57 7.78 1.43 13.578z"></path>
	</g>
</svg>
